G04 ================== begin FILE IDENTIFICATION RECORD ==================*
G04 Layout Name:  C:/Temp/Motion_Detector/allegro/MOTION_DETECTOR.brd*
G04 Film Name:    TOP*
G04 File Format:  Gerber RS274X*
G04 File Origin:  Cadence Allegro 17.2-S083*
G04 Origin Date:  Tue Jan 10 11:00:13 2023*
G04 *
G04 Layer:  BOARD GEOMETRY/DESIGN_OUTLINE*
G04 Layer:  ETCH/TOP*
G04 Layer:  PIN/TOP*
G04 Layer:  VIA CLASS/TOP*
G04 *
G04 Offset:    (0.0000 0.0000)*
G04 Mirror:    No*
G04 Mode:      Positive*
G04 Rotation:  0*
G04 FullContactRelief:  No*
G04 UndefLineWidth:     0.0100*
G04 ================== end FILE IDENTIFICATION RECORD ====================*
%FSLAX25Y25*MOMM*%
%IR0*IPPOS*OFA0.00000B0.00000*MIA0B0*SFA1.00000B1.00000*%
%AMMACRO29*
4,1,44,-.2999,.0749,
-.2999,-.0749,
-.299199,-.083583,
-.296952,-.092004,
-.293276,-.099907,
-.288284,-.107051,
-.282128,-.11322,
-.274993,-.118226,
-.267098,-.121917,
-.258682,-.124182,
-.25,-.12495,
-.2499,-.1249,
.2499,-.1249,
.258583,-.124199,
.267004,-.121952,
.274907,-.118276,
.282051,-.113284,
.28822,-.107128,
.293226,-.099993,
.296917,-.092098,
.299182,-.083682,
.29995,-.075,
.2999,-.0749,
.2999,.0749,
.299199,.083583,
.296952,.092004,
.293276,.099907,
.288284,.107051,
.282128,.11322,
.274993,.118226,
.267098,.121917,
.258682,.124182,
.25,.12495,
.2499,.1249,
-.2499,.1249,
-.258583,.124199,
-.267004,.121952,
-.274907,.118276,
-.282051,.113284,
-.28822,.107128,
-.293226,.099993,
-.296917,.092098,
-.299182,.083682,
-.29995,.075,
-.2999,.0749,
0.0*
%
%ADD29MACRO29*%
%ADD22R,.6401X1.0201*%
%ADD52R,.8001X1.8001*%
%ADD14C,.6*%
%ADD13R,.4501X1.38*%
%AMMACRO55*
4,1,12,1.225,-1.45,
1.225,1.45,
1.025,1.45,
1.025,.975,
-1.025,.975,
-1.025,1.45,
-1.225,1.45,
-1.225,-1.45,
-1.025,-1.45,
-1.025,-.975,
1.025,-.975,
1.025,-1.45,
1.225,-1.45,
0.0*
%
%ADD55MACRO55*%
%AMMACRO48*
4,1,44,-.0999,.45,
-.0999,-.45,
-.09919,-.458682,
-.096935,-.467101,
-.093251,-.475,
-.088252,-.482139,
-.082089,-.488302,
-.07495,-.493301,
-.067051,-.496985,
-.058632,-.49924,
-.04995,-.5,
-.0499,-.5,
.0499,-.5,
.058583,-.499249,
.067004,-.497002,
.074907,-.493326,
.082051,-.488334,
.08822,-.482178,
.093226,-.475043,
.096918,-.467148,
.099182,-.458732,
.09995,-.45005,
.0999,-.45,
.0999,.45,
.09919,.458682,
.096935,.467101,
.093251,.475,
.088252,.482139,
.082089,.488302,
.07495,.493301,
.067051,.496985,
.058632,.49924,
.04995,.5,
.0499,.5,
-.0499,.5,
-.058583,.499249,
-.067004,.497002,
-.074907,.493326,
-.082051,.488334,
-.08822,.482178,
-.093226,.475043,
-.096918,.467148,
-.099182,.458732,
-.09995,.45005,
-.0999,.45,
0.0*
%
%ADD48MACRO48*%
%ADD25C,.65*%
%ADD21R,1.4501X.95*%
%ADD17R,.95X1.4501*%
%ADD16R,.5001X.5001*%
%ADD50R,.7X.7*%
%ADD30R,.62X.62*%
%AMMACRO38*
4,1,44,-.0749,-.2999,
.0749,-.2999,
.083583,-.299199,
.092004,-.296952,
.099907,-.293276,
.107051,-.288284,
.11322,-.282128,
.118226,-.274993,
.121917,-.267098,
.124182,-.258682,
.12495,-.25,
.1249,-.2499,
.1249,.2499,
.124199,.258583,
.121952,.267004,
.118276,.274907,
.113284,.282051,
.107128,.28822,
.099993,.293226,
.092098,.296917,
.083682,.299182,
.075,.29995,
.0749,.2999,
-.0749,.2999,
-.083583,.299199,
-.092004,.296952,
-.099907,.293276,
-.107051,.288284,
-.11322,.282128,
-.118226,.274993,
-.121917,.267098,
-.124182,.258682,
-.12495,.25,
-.1249,.2499,
-.1249,-.2499,
-.124199,-.258583,
-.121952,-.267004,
-.118276,-.274907,
-.113284,-.282051,
-.107128,-.28822,
-.099993,-.293226,
-.092098,-.296917,
-.083682,-.299182,
-.075,-.29995,
-.0749,-.2999,
0.0*
%
%ADD38MACRO38*%
%ADD31R,.5999X.5999*%
%ADD11O,1.4X2.1001*%
%AMMACRO54*
4,1,44,-.2499,-.0999,
.2499,-.0999,
.258583,-.099199,
.267004,-.096952,
.274907,-.093276,
.282051,-.088284,
.28822,-.082128,
.293226,-.074993,
.296917,-.067098,
.299182,-.058682,
.29995,-.05,
.2999,-.0499,
.2999,.0499,
.299199,.058583,
.296952,.067004,
.293276,.074907,
.288284,.082051,
.282128,.08822,
.274993,.093226,
.267098,.096917,
.258682,.099182,
.25,.09995,
.2499,.0999,
-.2499,.0999,
-.258583,.099199,
-.267004,.096952,
-.274907,.093276,
-.282051,.088284,
-.28822,.082128,
-.293226,.074993,
-.296917,.067098,
-.299182,.058682,
-.29995,.05,
-.2999,.0499,
-.2999,-.0499,
-.299199,-.058583,
-.296952,-.067004,
-.293276,-.074907,
-.288284,-.082051,
-.282128,-.08822,
-.274993,-.093226,
-.267098,-.096917,
-.258682,-.099182,
-.25,-.09995,
-.2499,-.0999,
0.0*
%
%ADD54MACRO54*%
%ADD39R,1.3X1.1001*%
%ADD12R,.875X1.8999*%
%ADD26R,1.8001X1.*%
%ADD57R,.5001X.4*%
%ADD56R,2.7501X1.*%
%ADD33R,.35X.22*%
%ADD44R,.22X.35*%
%ADD42R,.5001X.7*%
%ADD34C,1.05*%
%AMMACRO37*
4,1,44,-1.725,1.675,
-1.725,-1.675,
-1.724299,-1.683683,
-1.722052,-1.692104,
-1.718376,-1.700007,
-1.713384,-1.707151,
-1.707228,-1.71332,
-1.700093,-1.718326,
-1.692198,-1.722017,
-1.683782,-1.724282,
-1.6751,-1.72505,
-1.675,-1.725,
1.675,-1.725,
1.683683,-1.724299,
1.692104,-1.722052,
1.700007,-1.718376,
1.707151,-1.713384,
1.71332,-1.707228,
1.718326,-1.700093,
1.722017,-1.692198,
1.724282,-1.683782,
1.72505,-1.6751,
1.725,-1.675,
1.725,1.675,
1.724299,1.683683,
1.722052,1.692104,
1.718376,1.700007,
1.713384,1.707151,
1.707228,1.71332,
1.700093,1.718326,
1.692198,1.722017,
1.683782,1.724282,
1.6751,1.72505,
1.675,1.725,
-1.675,1.725,
-1.683683,1.724299,
-1.692104,1.722052,
-1.700007,1.718376,
-1.707151,1.713384,
-1.71332,1.707228,
-1.718326,1.700093,
-1.722017,1.692198,
-1.724282,1.683782,
-1.72505,1.6751,
-1.725,1.675,
0.0*
%
%ADD37MACRO37*%
%ADD28R,.7501X.3*%
%ADD19C,1.5001*%
%ADD35R,.7X.65*%
%ADD27R,1.7501X1.4501*%
%ADD23C,1.47*%
%ADD41R,1.2499X1.1001*%
%ADD40R,1.1001X1.2499*%
%ADD20R,1.X1.1999*%
%ADD49R,.95X.95*%
%ADD24R,.95X.95*%
%ADD46R,1.8001X1.5499*%
%ADD53R,.5999X.5001*%
%ADD18C,1.1999*%
%ADD47R,.5001X.5999*%
%ADD32R,.35X.5999*%
%ADD43R,.5999X.35*%
%ADD15R,.5001X.8999*%
%ADD45R,.5999X.8001*%
%ADD36R,.8001X.8999*%
%ADD10R,1.4249X1.5499*%
%ADD51R,.8999X.8001*%
%ADD58C,.2*%
%ADD59C,.5*%
%ADD60C,.25*%
%ADD61C,1.*%
%ADD62C,.01*%
G75*
%LPD*%
G75*
G36*
G01X1552500Y4319000D02*
Y4269000D01*
X1108500D01*
Y4539000D01*
X1372500D01*
Y4739000D01*
X1108500D01*
Y5009000D01*
X1372500D01*
Y5209000D01*
X1108500D01*
Y5709000D01*
X1598500D01*
Y5619000D01*
X1158500D01*
Y5479000D01*
X1598500D01*
Y5429000D01*
X1158500D01*
Y5259000D01*
X1422500D01*
Y4959000D01*
X1158500D01*
Y4789000D01*
X1422500D01*
Y4489000D01*
X1158500D01*
Y4319000D01*
X1552500D01*
G37*
G54D10*
X1381250Y1312500D03*
X1878750D03*
G54D20*
X3027000Y4792500D03*
X3018000Y5042500D03*
X3227000Y4792500D03*
X3218000Y5042500D03*
G54D11*
X1235000Y1055000D03*
X2025000D03*
G54D12*
X1511250D03*
X1748750D03*
G54D30*
X3959000Y5815000D03*
X4185000Y4751000D03*
X4095000D03*
X4049000Y5815000D03*
X4266000Y5813000D03*
X4356000D03*
X4819000Y5254000D03*
Y5344000D03*
X4544000Y5816500D03*
Y5906500D03*
X5256500Y5343500D03*
X5122000Y5104000D03*
Y5014000D03*
X5256500Y5433500D03*
G54D21*
X2772000Y5259000D03*
Y5454000D03*
X3578000D03*
Y5649000D03*
G54D40*
X4822500Y2541000D03*
X4997500D03*
G54D31*
X3880500Y6811500D03*
X3985500D03*
X4427500Y2363000D03*
X4532500D03*
X5706500Y2079000D03*
X5601500D03*
Y1951000D03*
X5706500D03*
X5643000Y5433500D03*
Y5538500D03*
X5533000Y6672500D03*
Y6567500D03*
G54D13*
X1500000Y1321000D03*
X1565000D03*
X1630000D03*
X1695000D03*
X1760000D03*
G54D22*
X3109000Y5454000D03*
X3237000Y5246000D03*
X3365000D03*
X3237000Y5454000D03*
G54D32*
X3618000Y6830500D03*
G54D41*
X4610000Y2916500D03*
Y3091500D03*
G54D23*
X3110000Y6830500D03*
X3364000D03*
X4743000Y2213000D03*
X4768000Y4290000D03*
Y4544000D03*
X4997000Y2213000D03*
X5276000Y4290000D03*
X5022000D03*
X5276000Y4544000D03*
X5022000D03*
X5784000Y4290000D03*
X5530000D03*
X5784000Y4544000D03*
X5530000D03*
G54D50*
X5725000Y2757000D03*
X5575000D03*
G54D14*
X1500000Y1443000D03*
X2066500Y5664000D03*
X2593000Y5259000D03*
X2879000Y4792500D03*
X3027000Y4665000D03*
X3018000Y5157500D03*
X2882000Y5042500D03*
X3578000Y5777500D03*
X3414500Y5649000D03*
X4020500Y2328500D03*
X3959000Y5715500D03*
X3841000Y5815000D03*
X3951750Y6282750D03*
X3683000Y6895500D03*
X4335500Y2294000D03*
X4025000Y2248000D03*
X4117500Y2249500D03*
X4116000Y2328500D03*
X4334500Y4448500D03*
X4437000Y4717500D03*
X4434000Y4559000D03*
X4095000Y4684000D03*
X4423000Y5880000D03*
X4296000Y6008500D03*
X4399250Y6102750D03*
X4066000Y6387000D03*
X4532500Y2436500D03*
X4616000Y2363000D03*
X4637000Y4917500D03*
X4891500Y5344000D03*
X4840500Y5816500D03*
X4544000Y5993000D03*
X4632500Y5906500D03*
X5330500Y5102500D03*
X5201000D03*
X5039000Y5014000D03*
X5256500Y5268000D03*
X5141500Y5499000D03*
X5011500Y5645500D03*
X5141500Y5355000D03*
X4911500Y5538000D03*
X5042500Y6015000D03*
X5211000Y5846500D03*
X5778100Y2018400D03*
X5717500Y2156500D03*
X5515000Y2079000D03*
X5514500Y1951000D03*
X5755000Y2597000D03*
X5675000Y2502500D03*
X5489000Y3201000D03*
X5482500Y3330600D03*
X5581200Y3427000D03*
X5405500Y3783500D03*
X5658500D03*
X5654500Y3868500D03*
X5407000D03*
X5389500Y5510000D03*
Y5366500D03*
X5703000Y5938500D03*
X5629000Y6813000D03*
X5999500Y2051000D03*
X6130000Y2053500D03*
X5999000Y2148500D03*
X6129500Y2144500D03*
X6092500Y3783500D03*
X6095500Y3868500D03*
X5918000Y6057500D03*
X6396000Y1652000D03*
Y1877000D03*
X6500000Y1947000D03*
X6399300Y2096500D03*
X6527000Y2027000D03*
X6411000Y2014000D03*
X6300500Y3783500D03*
Y3868500D03*
X6734000Y1947000D03*
X6783500Y3350500D03*
Y3516500D03*
G54D60*
G01X1500000Y1321000D02*
Y1443000D01*
G01X1623500Y5664000D02*
X2066500D01*
G01X2209500Y5454000D02*
X1623500D01*
G01X2772000Y5259000D02*
X2593000D01*
G01X2772000Y5454000D02*
X2404500D01*
G01X2879000Y4792500D02*
X3027000D01*
G01D02*
Y4665000D01*
G01X2882000Y5042500D02*
X3018000D01*
G01D02*
Y5157500D01*
G01X3109000Y5454000D02*
X2772000D01*
G01X3227000Y4792500D02*
X3531750D01*
G01D02*
X3670500D01*
X3739000Y4861000D01*
Y5038000D01*
X3955000Y5254000D01*
X4019500D01*
G01X3218000Y5042500D02*
X3531750D01*
G01D02*
X3656010D01*
X3917510Y5304000D01*
X4019500D01*
G01X3365000Y5246000D02*
X3578000D01*
X3736000Y5404000D01*
X4019500D01*
G01X3237000Y5246000D02*
Y5454000D01*
G01X3578000Y5649000D02*
X3414500D01*
G01X3237000Y5454000D02*
X3578000D01*
G01X3618000Y6830500D02*
X3364000D01*
G01X3925000Y2263000D02*
X3845500D01*
X3795500Y2213000D01*
G01D02*
X3925000D01*
G01X3602500Y2020000D02*
X3795500Y2213000D01*
G01X3925000Y2313000D02*
X3725500D01*
X3675760Y2362740D01*
G01X3925000Y2363000D02*
X3676020D01*
X3675760Y2362740D01*
G01X3602500Y2436000D02*
X3675760Y2362740D01*
G01X4019500Y5104000D02*
X3911000D01*
X3856000Y5049000D01*
Y4038000D01*
X4110500Y3783500D01*
X5405500D01*
G01X4084500Y5039000D02*
Y4918000D01*
X3979000Y4812500D01*
Y4083500D01*
X4194000Y3868500D01*
X5407000D01*
G01X3578000Y5777500D02*
Y5649000D01*
G01X3959000Y5815000D02*
Y5715500D01*
G01X3578000Y5454000D02*
X4019500D01*
G01X4049000Y5815000D02*
Y5877000D01*
X3881000Y6045000D01*
Y6345500D01*
X4012000Y6476500D01*
X4333000D01*
X4473500Y6336000D01*
Y6076700D01*
G01X3841000Y5815000D02*
X3959000D01*
G01X4066000Y6282750D02*
X3951750D01*
G01X3985500Y6811500D02*
X4946500D01*
X5160500Y6597500D01*
Y6040500D01*
X4685350Y5565350D01*
X4463350D01*
X4434500Y5536500D01*
Y5519000D01*
G01X4743000Y2213000D02*
X4215000D01*
G01Y2363000D02*
X4427500D01*
G01X4215000Y2263000D02*
X4304500D01*
X4335500Y2294000D01*
G01X4185000Y4587500D02*
X4187500D01*
X4245000Y4645000D01*
X4364500D01*
X4437000Y4717500D01*
G01X4185000Y4751000D02*
Y4983300D01*
X4184500Y4983800D01*
Y5039000D01*
G01X4334500Y4739000D02*
Y4821510D01*
X4234500Y4921510D01*
Y5039000D01*
G01X4095000Y4751000D02*
Y4684000D01*
G01X4434000Y4559000D02*
X4334500D01*
G01D02*
Y4448500D01*
G01X4544000Y5816500D02*
X4487800D01*
X4284500Y5613200D01*
Y5519000D01*
G01X4084500D02*
Y5637000D01*
X4049000Y5672500D01*
Y5815000D01*
G01X4266000Y5813000D02*
Y5665000D01*
X4234500Y5633500D01*
Y5519000D01*
G01X4296000Y6282750D02*
X4205800D01*
X4184500Y6261450D01*
Y5519000D01*
G01X4066000Y6102750D02*
Y6022540D01*
X4134500Y5954040D01*
Y5519000D01*
G01X4473500Y6076700D02*
X4266000Y5869200D01*
Y5813000D01*
G01X4356000D02*
X4423000Y5880000D01*
G01X4296000Y6008500D02*
Y6102750D01*
G01D02*
X4399250D01*
G01X4066000Y6387000D02*
Y6282750D01*
G01X4371500Y7481500D02*
X5237000Y6616000D01*
Y6038500D01*
X4652500Y5454000D01*
X4499500D01*
G01X4532500Y2436500D02*
Y2363000D01*
G01D02*
X4616000D01*
G01X4499500Y5104000D02*
X4798500D01*
G01X5141500Y5355000D02*
Y5289000D01*
X5261000Y5169500D01*
Y4950000D01*
X5228500Y4917500D01*
X4637000D01*
G01X5007000Y5333000D02*
X4928000Y5254000D01*
X4819000D01*
G01D02*
X4719000Y5154000D01*
X4499500D01*
G01X5256500Y5433500D02*
X4784200D01*
X4554700Y5204000D01*
X4499500D01*
G01X5533000Y6567500D02*
Y6258500D01*
X4678500Y5404000D01*
X4499500D01*
G01X4819000Y5344000D02*
X4891500D01*
G01X4840500Y5816500D02*
X4544000D01*
G01X4473500Y6076700D02*
X4980800D01*
X5042500Y6015000D01*
G01X4544000Y5993000D02*
Y5906500D01*
G01D02*
X4632500D01*
G01X4997500Y2541000D02*
Y2453300D01*
X4997000Y2452800D01*
Y2213000D01*
G01X5330000Y3092000D02*
Y3021700D01*
X5280000Y2971700D01*
Y2916500D01*
G01X5277500Y3427000D02*
Y3294500D01*
X5330000Y3242000D01*
Y3202000D01*
G01X5007000Y5333000D02*
X5119500D01*
X5141500Y5355000D01*
G01X5389500Y5366500D02*
Y5161500D01*
X5330500Y5102500D01*
G01X4938500Y5104000D02*
X5122000D01*
G01D02*
X5123500Y5102500D01*
X5201000D01*
G01X5122000Y5014000D02*
X5039000D01*
G01X5256500Y5343500D02*
Y5268000D01*
G01X5141500Y5499000D02*
Y5592500D01*
X5088500Y5645500D01*
X5011500D01*
G01X5507000Y5433500D02*
X5256500D01*
G01X5389500Y5510000D02*
Y5668000D01*
X5211000Y5846500D01*
G01X5007000Y5538000D02*
X4911500D01*
G01X5874000Y2159000D02*
X5796320D01*
X5740820Y2214500D01*
X5451300D01*
X5352000Y2115200D01*
Y2012500D01*
G01X5874000Y1999000D02*
X5854000D01*
X5806000Y1951000D01*
X5706500D01*
G01Y2079000D02*
X5874000D01*
G01Y2039000D02*
X5798700D01*
X5778100Y2018400D01*
G01X5601500Y2079000D02*
X5515000D01*
G01X5601500Y1951000D02*
X5514500D01*
G01X5874000Y2119000D02*
X5772500D01*
X5735000Y2156500D01*
X5717500D01*
G01X5675000Y2502500D02*
Y2597000D01*
G01D02*
X5755000D01*
G01X5380000Y3092000D02*
Y2916500D01*
G01X5430000Y3092000D02*
X5550000D01*
X5575000Y3067000D01*
Y2908000D01*
G01X5430000Y3202000D02*
X5488000D01*
X5489000Y3201000D01*
G01X5581200Y3427000D02*
X5482500D01*
G01D02*
Y3330600D01*
G01X6092500Y3783500D02*
X5658500D01*
G01X6095500Y3868500D02*
X5654500D01*
G01X5507000Y5433500D02*
X5643000D01*
G01X5918000Y5538500D02*
X5643000D01*
G01X5703000Y5938500D02*
X5918000D01*
G01X5819500Y6878000D02*
X5552000D01*
G01X6201500Y3038680D02*
X6327500Y3164680D01*
Y3268500D01*
G01X5918000Y5938500D02*
Y6057500D01*
G01X5899500Y6878000D02*
X6064500D01*
X6201500Y6741000D01*
G01X6396000Y1652000D02*
X6715500D01*
X6882000Y1818500D01*
Y3386010D01*
X6830010Y3438000D01*
X6646000D01*
G01X6624000Y2282000D02*
X6392200D01*
X6309200Y2199000D01*
X6254000D01*
G01X6474000Y2159000D02*
X6254000D01*
G01Y1999000D02*
X6274000D01*
X6396000Y1877000D01*
G01X6254000Y2039000D02*
X6304380D01*
X6396380Y1947000D01*
X6500000D01*
G01X6254000Y2119000D02*
X6376800D01*
X6399300Y2096500D01*
G01X6254000Y2079000D02*
X6345700D01*
X6410700Y2014000D01*
X6411000D01*
G01X6474000Y2079000D02*
X6526000Y2027000D01*
X6527000D01*
G01X6327500Y3268500D02*
Y3438000D01*
G01X6300500Y3783500D02*
X6646000Y3438000D01*
G01D02*
X6427500D01*
G01Y3268500D02*
X6641500D01*
X6783500Y3126500D01*
G01Y3516500D02*
X6431500Y3868500D01*
X6300500D01*
G01X6734000Y1947000D02*
X6783870Y1996870D01*
Y3126130D01*
X6783500Y3126500D01*
G01Y3350500D02*
Y3126500D01*
G54D51*
X5755000Y2908000D03*
X5575000D03*
G54D15*
X1623500Y5664000D03*
G54D24*
X3397500Y2211000D03*
Y2436000D03*
X3602500Y2211000D03*
Y2436000D03*
X5277500Y3427000D03*
X5482500D03*
G54D42*
X4899000Y2757000D03*
X4979000D03*
X5899500Y6878000D03*
X5819500D03*
G54D33*
X3683000Y6849500D03*
Y6811500D03*
G54D61*
G01X1760000Y1444000D02*
Y2659370D01*
X1860000Y2759370D01*
X3461000D01*
G01X2853000Y2345000D02*
X3300000Y1898000D01*
Y1310000D01*
G01X3110000Y7313000D02*
Y6830500D01*
G01X5241000Y1776000D02*
X3702500D01*
X3602500Y1676000D01*
G01X3600000Y1310000D02*
Y1673500D01*
X3602500Y1676000D01*
G01X3397500Y2098700D02*
Y2211000D01*
G01D02*
X3274500D01*
G01X3461000Y2759370D02*
X3602500Y2617870D01*
Y2436000D01*
G01X3277900D02*
X3397500D01*
G01D02*
Y2560500D01*
G01X3461000Y2759370D02*
X4292070D01*
G01X3305000Y7313000D02*
X3485000D01*
X3653500Y7481500D01*
G01X3602500Y1676000D02*
Y2020000D01*
G01Y2211000D02*
Y2020000D01*
G01X5961450Y7798500D02*
X5763450Y7996500D01*
X4168500D01*
X3653500Y7481500D01*
G01X4822500Y2541000D02*
X4502870D01*
X4292070Y2759370D01*
G01X4610000Y2916500D02*
X4449200D01*
X4292070Y2759370D01*
G01X4610000Y3091500D02*
X4458000D01*
G01X4185000Y4452500D02*
Y4151500D01*
X4285000Y4051500D01*
X5440000D01*
X5540000Y3951500D01*
Y3637000D01*
G01X4879000Y3093600D02*
X5004200D01*
G01X4610000Y3217200D02*
Y3091500D01*
G01X5241000Y1776000D02*
X6517000D01*
X6624000Y1883000D01*
Y2282000D01*
G01X5241000Y1776000D02*
X5352000Y1887000D01*
Y2012500D01*
G01X5817000Y2327500D02*
X5352000D01*
G01D02*
X5339490D01*
X5175990Y2491000D01*
G01X5725000Y2757000D02*
X5921000D01*
X6071000Y2907000D01*
G01D02*
X5755000Y2908000D01*
G01X5741000Y3116100D02*
Y3230500D01*
G01X5921000Y3435500D02*
X5741000D01*
G01D02*
X5660000Y3516500D01*
Y3517000D01*
X5540000Y3637000D01*
G01X5741000Y3230500D02*
X5588300D01*
X5587700Y3231100D01*
G01X6071000Y2907000D02*
Y2908180D01*
X6201500Y3038680D01*
G01D02*
Y3335500D01*
G01X5921000Y3116100D02*
Y3230500D01*
G01X6201500Y5819000D02*
Y3335500D01*
G01X5921000Y3435500D02*
X6101500D01*
X6201500Y3335500D01*
G01X5921000Y3230500D02*
X6056600D01*
X6057200Y3231100D01*
G01X6201500Y6741000D02*
Y5819000D01*
G01Y6741000D02*
Y7558450D01*
X5961450Y7798500D01*
G01X6624000Y2609100D02*
Y2462000D01*
G01D02*
X6473000D01*
X6472600Y2461600D01*
G54D43*
X4823000Y2981500D03*
X5552000Y6878000D03*
G54D34*
X3653500Y7481500D03*
X4371500D03*
Y8199500D03*
G54D16*
X1623500Y5454000D03*
G54D25*
X3274500Y2211000D03*
X3397500Y2098700D03*
Y2560500D03*
X3277900Y2436000D03*
X4458000Y3091500D03*
X4347510Y5194390D03*
X4178510D03*
X4347510Y5363390D03*
X4178510D03*
X4610000Y3217200D03*
X5175990Y2491000D03*
X5004200Y3093600D03*
X5741000Y3116100D03*
X5587700Y3231100D03*
X5921000Y3116100D03*
X6057200Y3231100D03*
X6472600Y2461600D03*
X6624000Y2609100D03*
G54D52*
X5540000Y3637000D03*
X5380000D03*
G54D62*
G01X1032500Y915000D02*
Y8437000D01*
X7517500D01*
Y915000D01*
X1032500D01*
G54D53*
X5507000Y5533500D03*
Y5433500D03*
G54D35*
X4185000Y4452500D03*
Y4587500D03*
G54D44*
X4842000Y2916500D03*
X4804000D03*
X5571000Y6813000D03*
X5533000D03*
G54D26*
X3531750Y4792500D03*
Y5042500D03*
G54D17*
X2209500Y5454000D03*
X2404500D03*
X3110000Y7313000D03*
X3305000D03*
G54D36*
X4334500Y4739000D03*
Y4559000D03*
X6624000Y2282000D03*
Y2462000D03*
G54D45*
X4798500Y5104000D03*
X4938500D03*
G54D18*
X2603000Y2345000D03*
X2353000D03*
X2853000D03*
G54D27*
X4070000Y2288000D03*
G54D54*
X5874000Y1999000D03*
Y2039000D03*
Y2079000D03*
Y2119000D03*
Y2159000D03*
Y2199000D03*
X6254000D03*
Y2159000D03*
Y2119000D03*
Y2079000D03*
Y2039000D03*
Y1999000D03*
G54D46*
X5352000Y2012500D03*
Y2327500D03*
G54D19*
X2900000Y1060000D03*
Y1560000D03*
X3600000Y1310000D03*
X3300000D03*
X3900000D03*
X4300000Y1060000D03*
Y1560000D03*
X5201450Y7798500D03*
X5961450D03*
G54D28*
X3925000Y2213000D03*
Y2263000D03*
Y2313000D03*
Y2363000D03*
X4215000Y2213000D03*
Y2363000D03*
Y2313000D03*
Y2263000D03*
G54D37*
X4259500Y5279000D03*
G54D55*
X6064000Y2099000D03*
G54D47*
X5280000Y2916500D03*
X5575000Y2597000D03*
X5675000D03*
X5380000Y2916500D03*
X6327500Y3268500D03*
X6427500D03*
X6327500Y3438000D03*
X6427500D03*
G54D56*
X5918000Y5538500D03*
Y5938500D03*
X6518000Y5538500D03*
Y5938500D03*
G54D38*
X4084500Y5039000D03*
X4134500D03*
X4184500D03*
X4234500D03*
X4284500D03*
X4334500D03*
X4384500D03*
X4434500D03*
Y5519000D03*
X4384500D03*
X4334500D03*
X4284500D03*
X4234500D03*
X4184500D03*
X4134500D03*
X4084500D03*
X5330000Y3092000D03*
X5430000D03*
X5380000D03*
G54D29*
X4019500Y5304000D03*
Y5254000D03*
Y5204000D03*
Y5154000D03*
Y5104000D03*
Y5454000D03*
Y5404000D03*
Y5354000D03*
X4499500Y5104000D03*
Y5154000D03*
Y5204000D03*
Y5254000D03*
Y5304000D03*
Y5354000D03*
Y5404000D03*
Y5454000D03*
G54D57*
X6474000Y2159000D03*
Y2079000D03*
G54D39*
X4296000Y6102750D03*
X4066000D03*
Y6282750D03*
X4296000D03*
G54D48*
X5330000Y3202000D03*
X5380000D03*
X5430000D03*
G54D58*
G01X3683000Y6811500D02*
X3880500D01*
G01X3683000Y6849500D02*
Y6895500D01*
G01X5022000Y4544000D02*
X4883500Y4682500D01*
X4560000D01*
X4284500Y4958000D01*
Y5039000D01*
G01X5276000Y4544000D02*
X5094000Y4726000D01*
X4580000D01*
X4334500Y4971500D01*
Y5039000D01*
G01X5530000Y4544000D02*
X5300500Y4773500D01*
X4597300D01*
X4384500Y4986300D01*
Y5039000D01*
G01X5784000Y4544000D02*
X5506000Y4822000D01*
X4634000D01*
X4434500Y5021500D01*
Y5039000D01*
G01X4842000Y2916500D02*
X4881500D01*
X4882000Y2917000D01*
G01X4804000Y2916500D02*
X4610000D01*
G01X5874000Y2199000D02*
Y2270500D01*
X5817000Y2327500D01*
G01X5330000Y3202000D02*
Y3092000D01*
G01X5552000Y6878000D02*
X5379000D01*
X5201450Y7055550D01*
Y7798500D01*
G01X5380000Y3202000D02*
Y3284000D01*
G01X5533000Y6813000D02*
Y6672500D01*
G01X5571000Y6813000D02*
X5629000D01*
G54D49*
X5007000Y5333000D03*
Y5538000D03*
X5741000Y3435500D03*
Y3230500D03*
X5921000Y3435500D03*
Y3230500D03*
G54D59*
G01X1760000Y1321000D02*
Y1444000D01*
G01X4899000Y2757000D02*
X4294440D01*
X4292070Y2759370D01*
G01X4185000Y4587500D02*
Y4751000D01*
G01X4823000Y2981500D02*
Y3037600D01*
X4879000Y3093600D01*
G01X4882000Y2917000D02*
X4929000D01*
G01X4979000Y2757000D02*
Y2867000D01*
X4929000Y2917000D01*
G01D02*
X5104000D01*
X5104500Y2916500D01*
X5280000D01*
G01X5575000Y2757000D02*
Y2597000D01*
G01Y2908000D02*
Y2757000D01*
G01X5380000Y3284000D02*
Y3637000D01*
G01X5507000Y5533500D02*
Y5639000D01*
X5557000Y5689000D01*
X6071500D01*
X6201500Y5819000D01*
M02*
