M48
METRIC,TZ
T01C.35
T02C.5
T03C.65
T04C.8001
T05C1.07
T06C1.1001
;LEADER: 12 
;HEADER: 
;CODE  : ASCII 
;FILE  : MOTION_DETECTOR-1-2.drl for  ... layers TOP and BOTTOM
;DESIGN: MOTION_DETECTOR.brd
;T01 Holesize 1. = 0.350000 Tolerance = +0.000000/-0.000000 PLATED MM Quantity = 78
;T02 Holesize 2. = 0.500000 Tolerance = +0.000000/-0.000000 PLATED MM Quantity = 18
;T03 Holesize 3. = 0.650000 Tolerance = +0.000000/-0.000000 PLATED MM Quantity = 3
;T04 Holesize 4. = 0.800100 Tolerance = +0.000000/-0.000000 PLATED MM Quantity = 3
;T05 Holesize 5. = 1.070000 Tolerance = +0.000000/-0.000000 PLATED MM Quantity = 14
;T06 Holesize 6. = 1.100100 Tolerance = +0.000000/-0.000000 PLATED MM Quantity = 9
%
G90
T01
X56750Y25025
X57550Y25970
X55145Y19510
X55150Y20790
X46160Y23630
X45325Y24365
X15000Y14430
X41160Y23285
X40205Y23285
X57030Y59385
X38410Y58150
X56290Y68130
X34145Y56490
X36830Y68955
X35780Y57775
X41175Y22495
X43992Y61028
X40250Y22480
X39517Y62828
X52565Y52680
X40660Y63870
X30270Y46650
X28790Y47925
X43345Y44485
X59180Y60575
X50390Y50140
X20665Y56640
X28820Y50425
X42960Y60085
X40950Y46840
X46325Y59065
X49115Y55380
X48915Y53440
X30180Y51575
X44230Y58800
X45440Y59930
X44340Y45590
X25930Y52590
X43355Y22940
X57175Y21565
X57781Y20184
X55812Y34270
X54825Y33306
X39590Y57155
X54890Y32010
X52110Y58465
X52010Y51025
X53305Y51025
X50425Y60150
X53895Y53665
X53895Y55100
X48405Y58165
X46370Y49175
X44370Y47175
X51415Y53550
X50115Y56455
X51415Y54990
X54070Y38685
X56545Y38685
X56585Y37835
X54055Y37835
X61295Y21445
X59990Y21485
X61300Y20535
X59995Y20510
X64110Y20140
X65270Y20270
X63993Y20965
X60955Y38685
X63005Y38685
X67835Y35165
X67835Y33505
X65000Y19470
X67340Y19470
X60925Y37835
X63960Y16520
X63960Y18770
X63005Y37835
T02
X41785Y51944
X43475Y51944
X41785Y53634
X43475Y53634
X55877Y32311
X57410Y31161
X59210Y31161
X46100Y32172
X44580Y30915
X32779Y24360
X33975Y25605
X33975Y20987
X32745Y22110
X50042Y30936
X51760Y24910
X60572Y32311
X66240Y26091
X64726Y24616
T03
X36535Y74815
X43715Y74815
X43715Y81995
T04
X23530Y23450
X26030Y23450
X28530Y23450
T05
X47680Y45440
X50220Y45440
X52760Y45440
X55300Y45440
X57840Y45440
X47680Y42900
X50220Y42900
X52760Y42900
X55300Y42900
X57840Y42900
X31100Y68305
X33640Y68305
X49970Y22130
X47430Y22130
T06
X29000Y10600
X43000Y10600
X33000Y13100
X36000Y13100
X39000Y13100
X29000Y15600
X43000Y15600
X52014Y77985
X59614Y77985
M30
