G04 ================== begin FILE IDENTIFICATION RECORD ==================*
G04 Layout Name:  C:/Temp/Motion_Detector/allegro/MOTION_DETECTOR.brd*
G04 Film Name:    PASTEMASK_TOP*
G04 File Format:  Gerber RS274X*
G04 File Origin:  Cadence Allegro 17.2-S083*
G04 Origin Date:  Tue Jan 10 11:00:13 2023*
G04 *
G04 Layer:  VIA CLASS/PASTEMASK_TOP*
G04 Layer:  PIN/PASTEMASK_TOP*
G04 Layer:  PACKAGE GEOMETRY/PASTEMASK_TOP*
G04 Layer:  BOARD GEOMETRY/DESIGN_OUTLINE*
G04 *
G04 Offset:    (0.0000 0.0000)*
G04 Mirror:    No*
G04 Mode:      Positive*
G04 Rotation:  0*
G04 FullContactRelief:  No*
G04 UndefLineWidth:     0.0100*
G04 ================== end FILE IDENTIFICATION RECORD ====================*
%FSLAX25Y25*MOMM*%
%IR0*IPPOS*OFA0.00000B0.00000*MIA0B0*SFA1.00000B1.00000*%
%AMMACRO46*
4,1,42,-.2,-.05,
.2,-.05,
.208683,-.049299,
.217104,-.047052,
.225007,-.043376,
.232151,-.038384,
.23832,-.032228,
.243326,-.025093,
.247017,-.017198,
.249282,-.008782,
.25005,-.0001,
.25,0.0,
.249299,.008683,
.247052,.017104,
.243376,.025007,
.238384,.032151,
.232228,.03832,
.225093,.043326,
.217198,.047017,
.208782,.049282,
.2001,.05005,
.2,.05,
-.2,.05,
-.208683,.049299,
-.217104,.047052,
-.225007,.043376,
-.232151,.038384,
-.23832,.032228,
-.243326,.025093,
-.247017,.017198,
-.249282,.008782,
-.25005,.0001,
-.25,0.0,
-.249299,-.008683,
-.247052,-.017104,
-.243376,-.025007,
-.238384,-.032151,
-.232228,-.03832,
-.225093,-.043326,
-.217198,-.047017,
-.208782,-.049282,
-.2001,-.05005,
-.2,-.05,
0.0*
%
%ADD46MACRO46*%
%ADD27R,.5999X.5499*%
%ADD41R,.8499X.8499*%
%ADD18R,.8499X.8499*%
%ADD44R,.7X1.7*%
%AMMACRO20*
4,1,4,-.1,-.825,
-.1,-.1,
-.675,-.1,
-.675,-.825,
-.1,-.825,
90.*
4,1,4,.675,-.825,
.675,-.1,
.1,-.1,
.1,-.825,
.675,-.825,
90.*
4,1,4,.675,.1,
.675,.825,
.1,.825,
.1,.1,
.675,.1,
90.*
4,1,4,-.1,.1,
-.1,.825,
-.675,.825,
-.675,.1,
-.1,.1,
90.*
%
%ADD20MACRO20*%
%ADD24R,.5001X.5001*%
%ADD12R,.775X1.8001*%
%ADD13R,.35X1.2799*%
%ADD16R,1.35X.8499*%
%ADD15R,.8999X1.1001*%
%ADD14R,.8499X1.35*%
%ADD19R,1.7X.8999*%
%ADD23R,.5199X.5199*%
%ADD48R,2.65X.8999*%
%AMMACRO30*
4,1,44,-.0499,-.2749,
.0499,-.2749,
.058583,-.274199,
.067004,-.271952,
.074907,-.268276,
.082051,-.263284,
.08822,-.257128,
.093226,-.249993,
.096917,-.242098,
.099182,-.233682,
.09995,-.225,
.0999,-.2249,
.0999,.2249,
.099199,.233583,
.096952,.242004,
.093276,.249907,
.088284,.257051,
.082128,.26322,
.074993,.268226,
.067098,.271917,
.058682,.274182,
.05,.27495,
.0499,.2749,
-.0499,.2749,
-.058583,.274199,
-.067004,.271952,
-.074907,.268276,
-.082051,.263284,
-.08822,.257128,
-.093226,.249993,
-.096917,.242098,
-.099182,.233682,
-.09995,.225,
-.0999,.2249,
-.0999,-.2249,
-.099199,-.233583,
-.096952,-.242004,
-.093276,-.249907,
-.088284,-.257051,
-.082128,-.26322,
-.074993,-.268226,
-.067098,-.271917,
-.058682,-.274182,
-.05,-.27495,
-.0499,-.2749,
0.0*
%
%ADD30MACRO30*%
%ADD11O,1.3X2.*%
%ADD42R,.5999X.5999*%
%ADD33R,1.1501X1.*%
%ADD32R,1.X1.1501*%
%ADD49R,.4X.3*%
%AMMACRO29*
4,1,40,-1.4646,-1.5,
-.0454,-1.5,
-.039253,-1.499462,
-.033292,-1.497865,
-.0277,-1.495257,
-.022645,-1.491718,
-.018282,-1.487355,
-.014743,-1.4823,
-.012135,-1.476708,
-.010538,-1.470747,
-.01,-1.4646,
-.01,-.0454,
-.010538,-.039253,
-.012135,-.033292,
-.014743,-.0277,
-.018282,-.022645,
-.022645,-.018282,
-.0277,-.014743,
-.033292,-.012135,
-.039253,-.010538,
-.0454,-.01,
-1.4646,-.01,
-1.470747,-.010538,
-1.476708,-.012135,
-1.4823,-.014743,
-1.487355,-.018282,
-1.491718,-.022645,
-1.495257,-.0277,
-1.497865,-.033292,
-1.499462,-.039253,
-1.5,-.0454,
-1.5,-1.4646,
-1.499462,-1.470747,
-1.497865,-1.476708,
-1.495257,-1.4823,
-1.491718,-1.487355,
-1.487355,-1.491718,
-1.4823,-1.495257,
-1.476708,-1.497865,
-1.470747,-1.499462,
-1.4646,-1.5,
90.*
4,1,40,.0454,-1.5,
1.4646,-1.5,
1.470747,-1.499462,
1.476708,-1.497865,
1.4823,-1.495257,
1.487355,-1.491718,
1.491718,-1.487355,
1.495257,-1.4823,
1.497865,-1.476708,
1.499462,-1.470747,
1.5,-1.4646,
1.5,-.0454,
1.499462,-.039253,
1.497865,-.033292,
1.495257,-.0277,
1.491718,-.022645,
1.487355,-.018282,
1.4823,-.014743,
1.476708,-.012135,
1.470747,-.010538,
1.4646,-.01,
.0454,-.01,
.039253,-.010538,
.033292,-.012135,
.0277,-.014743,
.022645,-.018282,
.018282,-.022645,
.014743,-.0277,
.012135,-.033292,
.010538,-.039253,
.01,-.0454,
.01,-1.4646,
.010538,-1.470747,
.012135,-1.476708,
.014743,-1.4823,
.018282,-1.487355,
.022645,-1.491718,
.0277,-1.495257,
.033292,-1.497865,
.039253,-1.499462,
.0454,-1.5,
90.*
4,1,40,-1.4646,.01,
-.0454,.01,
-.039253,.010538,
-.033292,.012135,
-.0277,.014743,
-.022645,.018282,
-.018282,.022645,
-.014743,.0277,
-.012135,.033292,
-.010538,.039253,
-.01,.0454,
-.01,1.4646,
-.010538,1.470747,
-.012135,1.476708,
-.014743,1.4823,
-.018282,1.487355,
-.022645,1.491718,
-.0277,1.495257,
-.033292,1.497865,
-.039253,1.499462,
-.0454,1.5,
-1.4646,1.5,
-1.470747,1.499462,
-1.476708,1.497865,
-1.4823,1.495257,
-1.487355,1.491718,
-1.491718,1.487355,
-1.495257,1.4823,
-1.497865,1.476708,
-1.499462,1.470747,
-1.5,1.4646,
-1.5,.0454,
-1.499462,.039253,
-1.497865,.033292,
-1.495257,.0277,
-1.491718,.022645,
-1.487355,.018282,
-1.4823,.014743,
-1.476708,.012135,
-1.470747,.010538,
-1.4646,.01,
90.*
4,1,40,.0454,.01,
1.4646,.01,
1.470747,.010538,
1.476708,.012135,
1.4823,.014743,
1.487355,.018282,
1.491718,.022645,
1.495257,.0277,
1.497865,.033292,
1.499462,.039253,
1.5,.0454,
1.5,1.4646,
1.499462,1.470747,
1.497865,1.476708,
1.495257,1.4823,
1.491718,1.487355,
1.487355,1.491718,
1.4823,1.495257,
1.476708,1.497865,
1.470747,1.499462,
1.4646,1.5,
.0454,1.5,
.039253,1.499462,
.033292,1.497865,
.0277,1.495257,
.022645,1.491718,
.018282,1.487355,
.014743,1.4823,
.012135,1.476708,
.010538,1.470747,
.01,1.4646,
.01,.0454,
.010538,.039253,
.012135,.033292,
.014743,.0277,
.018282,.022645,
.022645,.018282,
.0277,.014743,
.033292,.012135,
.039253,.010538,
.0454,.01,
90.*
%
%ADD29MACRO29*%
%ADD45R,.5001X.4*%
%ADD39R,.4X.5001*%
%ADD38R,1.7X1.4501*%
%ADD37R,.5001X.7*%
%ADD28R,.7X.8001*%
%ADD43R,.8001X.7*%
%ADD10R,1.3251X1.4501*%
%ADD17R,.54X.92*%
%ADD31R,1.1999X1.*%
%AMMACRO40*
4,1,42,-.05,.3749,
-.05,-.3749,
-.049299,-.383583,
-.047052,-.392004,
-.043376,-.399907,
-.038384,-.407051,
-.032228,-.41322,
-.025093,-.418226,
-.017198,-.421917,
-.008782,-.424182,
-.0001,-.42495,
0.0,-.4249,
.008683,-.424199,
.017104,-.421952,
.025007,-.418276,
.032151,-.413284,
.03832,-.407128,
.043326,-.399993,
.047017,-.392098,
.049282,-.383682,
.05005,-.375,
.05,-.3749,
.05,.3749,
.049299,.383583,
.047052,.392004,
.043376,.399907,
.038384,.407051,
.032228,.41322,
.025093,.418226,
.017198,.421917,
.008782,.424182,
.0001,.42495,
0.0,.4249,
-.008683,.424199,
-.017104,.421952,
-.025007,.418276,
-.032151,.413284,
-.03832,.407128,
-.043326,.399993,
-.047017,.392098,
-.049282,.383682,
-.05005,.375,
-.05,.3749,
0.0*
%
%ADD40MACRO40*%
%AMMACRO47*
4,1,40,-1.1396,-1.4,
-1.1104,-1.4,
-1.104253,-1.399462,
-1.098292,-1.397865,
-1.0927,-1.395257,
-1.087645,-1.391718,
-1.083282,-1.387355,
-1.079743,-1.3823,
-1.077135,-1.376708,
-1.075538,-1.370747,
-1.075,-1.3646,
-1.075,-1.1104,
-1.075538,-1.104253,
-1.077135,-1.098292,
-1.079743,-1.0927,
-1.083282,-1.087645,
-1.087645,-1.083282,
-1.0927,-1.079743,
-1.098292,-1.077135,
-1.104253,-1.075538,
-1.1104,-1.075,
-1.1396,-1.075,
-1.145747,-1.075538,
-1.151708,-1.077135,
-1.1573,-1.079743,
-1.162355,-1.083282,
-1.166718,-1.087645,
-1.170257,-1.0927,
-1.172865,-1.098292,
-1.174462,-1.104253,
-1.175,-1.1104,
-1.175,-1.3646,
-1.174462,-1.370747,
-1.172865,-1.376708,
-1.170257,-1.3823,
-1.166718,-1.387355,
-1.162355,-1.391718,
-1.1573,-1.395257,
-1.151708,-1.397865,
-1.145747,-1.399462,
-1.1396,-1.4,
180.*
4,1,40,1.1104,-1.4,
1.1396,-1.4,
1.145747,-1.399462,
1.151708,-1.397865,
1.1573,-1.395257,
1.162355,-1.391718,
1.166718,-1.387355,
1.170257,-1.3823,
1.172865,-1.376708,
1.174462,-1.370747,
1.175,-1.3646,
1.175,-1.1104,
1.174462,-1.104253,
1.172865,-1.098292,
1.170257,-1.0927,
1.166718,-1.087645,
1.162355,-1.083282,
1.1573,-1.079743,
1.151708,-1.077135,
1.145747,-1.075538,
1.1396,-1.075,
1.1104,-1.075,
1.104253,-1.075538,
1.098292,-1.077135,
1.0927,-1.079743,
1.087645,-1.083282,
1.083282,-1.087645,
1.079743,-1.0927,
1.077135,-1.098292,
1.075538,-1.104253,
1.075,-1.1104,
1.075,-1.3646,
1.075538,-1.370747,
1.077135,-1.376708,
1.079743,-1.3823,
1.083282,-1.387355,
1.087645,-1.391718,
1.0927,-1.395257,
1.098292,-1.397865,
1.104253,-1.399462,
1.1104,-1.4,
180.*
4,1,40,1.1104,1.075,
1.1396,1.075,
1.145747,1.075538,
1.151708,1.077135,
1.1573,1.079743,
1.162355,1.083282,
1.166718,1.087645,
1.170257,1.0927,
1.172865,1.098292,
1.174462,1.104253,
1.175,1.1104,
1.175,1.3646,
1.174462,1.370747,
1.172865,1.376708,
1.170257,1.3823,
1.166718,1.387355,
1.162355,1.391718,
1.1573,1.395257,
1.151708,1.397865,
1.145747,1.399462,
1.1396,1.4,
1.1104,1.4,
1.104253,1.399462,
1.098292,1.397865,
1.0927,1.395257,
1.087645,1.391718,
1.083282,1.387355,
1.079743,1.3823,
1.077135,1.376708,
1.075538,1.370747,
1.075,1.3646,
1.075,1.1104,
1.075538,1.104253,
1.077135,1.098292,
1.079743,1.0927,
1.083282,1.087645,
1.087645,1.083282,
1.0927,1.079743,
1.098292,1.077135,
1.104253,1.075538,
1.1104,1.075,
180.*
4,1,40,-1.1396,1.075,
-1.1104,1.075,
-1.104253,1.075538,
-1.098292,1.077135,
-1.0927,1.079743,
-1.087645,1.083282,
-1.083282,1.087645,
-1.079743,1.0927,
-1.077135,1.098292,
-1.075538,1.104253,
-1.075,1.1104,
-1.075,1.3646,
-1.075538,1.370747,
-1.077135,1.376708,
-1.079743,1.3823,
-1.083282,1.387355,
-1.087645,1.391718,
-1.0927,1.395257,
-1.098292,1.397865,
-1.104253,1.399462,
-1.1104,1.4,
-1.1396,1.4,
-1.145747,1.399462,
-1.151708,1.397865,
-1.1573,1.395257,
-1.162355,1.391718,
-1.166718,1.387355,
-1.170257,1.3823,
-1.172865,1.376708,
-1.174462,1.370747,
-1.175,1.3646,
-1.175,1.1104,
-1.174462,1.104253,
-1.172865,1.098292,
-1.170257,1.0927,
-1.166718,1.087645,
-1.162355,1.083282,
-1.1573,1.079743,
-1.151708,1.077135,
-1.145747,1.075538,
-1.1396,1.075,
180.*
4,1,40,-1.1446,-.875,
-.1354,-.875,
-.129253,-.874462,
-.123292,-.872865,
-.1177,-.870257,
-.112645,-.866718,
-.108282,-.862355,
-.104743,-.8573,
-.102135,-.851708,
-.100538,-.845747,
-.1,-.8396,
-.1,.8396,
-.100538,.845747,
-.102135,.851708,
-.104743,.8573,
-.108282,.862355,
-.112645,.866718,
-.1177,.870257,
-.123292,.872865,
-.129253,.874462,
-.1354,.875,
-1.1446,.875,
-1.150747,.874462,
-1.156708,.872865,
-1.1623,.870257,
-1.167355,.866718,
-1.171718,.862355,
-1.175257,.8573,
-1.177865,.851708,
-1.179462,.845747,
-1.18,.8396,
-1.18,-.8396,
-1.179462,-.845747,
-1.177865,-.851708,
-1.175257,-.8573,
-1.171718,-.862355,
-1.167355,-.866718,
-1.1623,-.870257,
-1.156708,-.872865,
-1.150747,-.874462,
-1.1446,-.875,
180.*
4,1,40,.1354,-.875,
1.1446,-.875,
1.150747,-.874462,
1.156708,-.872865,
1.1623,-.870257,
1.167355,-.866718,
1.171718,-.862355,
1.175257,-.8573,
1.177865,-.851708,
1.179462,-.845747,
1.18,-.8396,
1.18,.8396,
1.179462,.845747,
1.177865,.851708,
1.175257,.8573,
1.171718,.862355,
1.167355,.866718,
1.1623,.870257,
1.156708,.872865,
1.150747,.874462,
1.1446,.875,
.1354,.875,
.129253,.874462,
.123292,.872865,
.1177,.870257,
.112645,.866718,
.108282,.862355,
.104743,.8573,
.102135,.851708,
.100538,.845747,
.1,.8396,
.1,-.8396,
.100538,-.845747,
.102135,-.851708,
.104743,-.8573,
.108282,-.862355,
.112645,-.866718,
.1177,-.870257,
.123292,-.872865,
.129253,-.874462,
.1354,-.875,
180.*
%
%ADD47MACRO47*%
%ADD25R,.2499X.5001*%
%ADD35R,.5001X.2499*%
%ADD34R,.3X.5999*%
%ADD21R,.65X.1999*%
%ADD26R,.2499X.1199*%
%ADD36R,.1199X.2499*%
%AMMACRO22*
4,1,44,-.2749,.0499,
-.2749,-.0499,
-.274199,-.058583,
-.271952,-.067004,
-.268276,-.074907,
-.263284,-.082051,
-.257128,-.08822,
-.249993,-.093226,
-.242098,-.096917,
-.233682,-.099182,
-.225,-.09995,
-.2249,-.0999,
.2249,-.0999,
.233583,-.099199,
.242004,-.096952,
.249907,-.093276,
.257051,-.088284,
.26322,-.082128,
.268226,-.074993,
.271917,-.067098,
.274182,-.058682,
.27495,-.05,
.2749,-.0499,
.2749,.0499,
.274199,.058583,
.271952,.067004,
.268276,.074907,
.263284,.082051,
.257128,.08822,
.249993,.093226,
.242098,.096917,
.233682,.099182,
.225,.09995,
.2249,.0999,
-.2249,.0999,
-.233583,.099199,
-.242004,.096952,
-.249907,.093276,
-.257051,.088284,
-.26322,.082128,
-.268226,.074993,
-.271917,.067098,
-.274182,.058682,
-.27495,.05,
-.2749,.0499,
0.0*
%
%ADD22MACRO22*%
%ADD50C,.01*%
G75*
%LPD*%
G75*
G54D10*
X1381250Y1312500D03*
X1878750D03*
G54D11*
X1235000Y1055000D03*
X2025000D03*
G54D20*
X4070000Y2288000D03*
G54D21*
X3925000Y2213000D03*
Y2263000D03*
Y2313000D03*
Y2363000D03*
X4215000Y2213000D03*
Y2363000D03*
Y2313000D03*
Y2263000D03*
G54D30*
X4084500Y5039000D03*
X4134500D03*
X4184500D03*
X4234500D03*
X4284500D03*
X4334500D03*
X4384500D03*
X4434500D03*
Y5519000D03*
X4384500D03*
X4334500D03*
X4284500D03*
X4234500D03*
X4184500D03*
X4134500D03*
X4084500D03*
X5330000Y3092000D03*
X5430000D03*
X5380000D03*
G54D12*
X1511250Y1055000D03*
X1748750D03*
G54D22*
X4019500Y5304000D03*
Y5254000D03*
Y5204000D03*
Y5154000D03*
Y5104000D03*
Y5454000D03*
Y5404000D03*
Y5354000D03*
X4499500Y5104000D03*
Y5154000D03*
Y5204000D03*
Y5254000D03*
Y5304000D03*
Y5354000D03*
Y5404000D03*
Y5454000D03*
G54D40*
X5330000Y3207000D03*
X5380000D03*
X5430000D03*
G54D31*
X4296000Y6102750D03*
X4066000D03*
Y6282750D03*
X4296000D03*
G54D13*
X1500000Y1321000D03*
X1565000D03*
X1630000D03*
X1695000D03*
X1760000D03*
G54D50*
G01X1032500Y915000D02*
Y8437000D01*
X7517500D01*
Y915000D01*
X1032500D01*
G54D32*
X4822500Y2541000D03*
X4997500D03*
G54D23*
X3959000Y5815000D03*
X4185000Y4751000D03*
X4095000D03*
X4049000Y5815000D03*
X4266000Y5813000D03*
X4356000D03*
X4819000Y5254000D03*
Y5344000D03*
X4544000Y5816500D03*
Y5906500D03*
X5256500Y5343500D03*
X5122000Y5104000D03*
Y5014000D03*
X5256500Y5433500D03*
G54D14*
X2209500Y5454000D03*
X2404500D03*
X3110000Y7313000D03*
X3305000D03*
G54D41*
X5007000Y5333000D03*
Y5538000D03*
X5741000Y3435500D03*
Y3230500D03*
X5921000Y3435500D03*
Y3230500D03*
G54D33*
X4610000Y2916500D03*
Y3091500D03*
G54D42*
X5725000Y2757000D03*
X5575000D03*
G54D15*
X3027000Y4792500D03*
X3018000Y5042500D03*
X3227000Y4792500D03*
X3218000Y5042500D03*
G54D24*
X3880500Y6811500D03*
X3985500D03*
X4427500Y2363000D03*
X4532500D03*
X5706500Y2079000D03*
X5601500D03*
Y1951000D03*
X5706500D03*
X5643000Y5433500D03*
Y5538500D03*
X5533000Y6672500D03*
Y6567500D03*
G54D34*
X4909010Y2757000D03*
X4968990D03*
X5889490Y6878000D03*
X5829510D03*
G54D25*
X3618000Y6830500D03*
G54D43*
X5755000Y2908000D03*
X5575000D03*
G54D16*
X2772000Y5259000D03*
Y5454000D03*
X3578000D03*
Y5649000D03*
G54D26*
X3683000Y6849500D03*
Y6811500D03*
G54D35*
X4823000Y2981500D03*
X5552000Y6878000D03*
G54D17*
X3109000Y5454000D03*
X3237000Y5246000D03*
X3365000D03*
X3237000Y5454000D03*
G54D44*
X5540000Y3637000D03*
X5380000D03*
G54D36*
X4842000Y2916500D03*
X4804000D03*
X5571000Y6813000D03*
X5533000D03*
G54D45*
X5507000Y5533500D03*
Y5433500D03*
G54D18*
X3397500Y2211000D03*
Y2436000D03*
X3602500Y2211000D03*
Y2436000D03*
X5277500Y3427000D03*
X5482500D03*
G54D27*
X4185000Y4452500D03*
Y4587500D03*
G54D28*
X4334500Y4739000D03*
Y4559000D03*
X6624000Y2282000D03*
Y2462000D03*
G54D37*
X4798500Y5104000D03*
X4938500D03*
G54D19*
X3531750Y4792500D03*
Y5042500D03*
G54D46*
X5874000Y1999000D03*
Y2039000D03*
Y2079000D03*
Y2119000D03*
Y2159000D03*
Y2199000D03*
X6254000D03*
Y2159000D03*
Y2119000D03*
Y2079000D03*
Y2039000D03*
Y1999000D03*
G54D47*
X6064000Y2099000D03*
G54D38*
X5352000Y2012500D03*
Y2327500D03*
G54D29*
X4259500Y5279000D03*
G54D39*
X5280000Y2916500D03*
X5575000Y2597000D03*
X5675000D03*
X5380000Y2916500D03*
X6327500Y3268500D03*
X6427500D03*
X6327500Y3438000D03*
X6427500D03*
G54D48*
X5918000Y5538500D03*
Y5938500D03*
X6518000Y5538500D03*
Y5938500D03*
G54D49*
X6474000Y2159000D03*
Y2079000D03*
M02*
