G04 ================== begin FILE IDENTIFICATION RECORD ==================*
G04 Layout Name:  C:/Temp/Motion_Detector/allegro/MOTION_DETECTOR.brd*
G04 Film Name:    SILK_TOP*
G04 File Format:  Gerber RS274X*
G04 File Origin:  Cadence Allegro 17.2-S083*
G04 Origin Date:  Tue Jan 10 11:00:13 2023*
G04 *
G04 Layer:  REF DES/SILKSCREEN_TOP*
G04 Layer:  PACKAGE GEOMETRY/SILKSCREEN_TOP*
G04 Layer:  COMPONENT VALUE/SILKSCREEN_TOP*
G04 Layer:  BOARD GEOMETRY/SILKSCREEN_TOP*
G04 Layer:  BOARD GEOMETRY/DESIGN_OUTLINE*
G04 *
G04 Offset:    (0.0000 0.0000)*
G04 Mirror:    No*
G04 Mode:      Positive*
G04 Rotation:  0*
G04 FullContactRelief:  No*
G04 UndefLineWidth:     0.0100*
G04 ================== end FILE IDENTIFICATION RECORD ====================*
%FSLAX25Y25*MOMM*%
%IR0*IPPOS*OFA0.00000B0.00000*MIA0B0*SFA1.00000B1.00000*%
%ADD10C,.01*%
G75*
%LPD*%
G75*
G36*
G01X3992000Y5507000D02*
G03I-12500J0D01*
G37*
G36*
G01X4331000Y6382750D02*
G03I-30000J0D01*
G37*
G36*
G01X6280000Y5467500D02*
Y5413500D01*
X6149000D01*
Y5467500D01*
X6280000D01*
G37*
G36*
G01X6278000Y6063500D02*
Y6009500D01*
X6147000D01*
Y6063500D01*
X6278000D01*
G37*
G36*
G01X6264000Y1952000D02*
G03I-20000J0D01*
G37*
G54D10*
G01X1255000Y1340000D02*
Y840000D01*
X2005000D01*
Y1340000D01*
X1255000D01*
G01X1032500Y915000D02*
Y8437000D01*
X7517500D01*
Y915000D01*
X1032500D01*
G01X1126800Y7578600D02*
X1139500Y7565060D01*
X1157280Y7554900D01*
X1172520D01*
X1187760Y7561670D01*
X1197920Y7571830D01*
X1203000Y7585370D01*
X1200460Y7605700D01*
X1190300Y7615860D01*
X1144580Y7636180D01*
X1134420Y7659890D01*
X1139500Y7676820D01*
X1149660Y7686980D01*
X1164900Y7690360D01*
X1180140Y7686980D01*
X1195380Y7676820D01*
G01X1319840Y7724230D02*
X1335080Y7744550D01*
X1352860Y7754710D01*
X1373180Y7758100D01*
X1398580Y7751330D01*
X1416360Y7734390D01*
X1421440Y7714080D01*
X1418900Y7693750D01*
X1408740Y7676820D01*
X1357940Y7642950D01*
X1335080Y7619250D01*
X1319840Y7585370D01*
X1314760Y7554900D01*
X1421440D01*
G01X1571300D02*
X1589080Y7558290D01*
X1609400Y7568440D01*
X1622100Y7585370D01*
X1627180Y7609090D01*
X1622100Y7632790D01*
X1606860Y7653110D01*
X1584000Y7663270D01*
X1558600D01*
X1543360Y7670050D01*
X1530660Y7686980D01*
X1525580Y7710680D01*
X1533200Y7734390D01*
X1550980Y7751330D01*
X1571300Y7758100D01*
X1591620Y7751330D01*
X1609400Y7734390D01*
X1617020Y7710680D01*
X1611940Y7686980D01*
X1599240Y7670050D01*
X1584000Y7663270D01*
X1558600D01*
X1535740Y7653110D01*
X1520500Y7632790D01*
X1515420Y7609090D01*
X1520500Y7585370D01*
X1533200Y7568440D01*
X1553520Y7558290D01*
X1571300Y7554900D01*
G01X1769420D02*
X1774500Y7598920D01*
X1782120Y7636180D01*
X1792280Y7670050D01*
X1804980Y7707300D01*
X1825300Y7758100D01*
X1723700D01*
G01X1929440Y7639560D02*
X1947220Y7663270D01*
X1962460Y7676820D01*
X1982780Y7683590D01*
X2000560Y7676820D01*
X2013260Y7663270D01*
X2023420Y7642950D01*
X2025960Y7619250D01*
X2023420Y7598920D01*
X2013260Y7578600D01*
X1998020Y7561670D01*
X1980240Y7554900D01*
X1959920Y7561670D01*
X1942140Y7581990D01*
X1931980Y7612470D01*
X1929440Y7646340D01*
X1934520Y7690360D01*
X1942140Y7714080D01*
X1954840Y7737780D01*
X1972620Y7754710D01*
X1990400Y7758100D01*
X2008180Y7751330D01*
X2020880Y7734390D01*
G01X2132640Y7724230D02*
X2147880Y7744550D01*
X2165660Y7754710D01*
X2185980Y7758100D01*
X2211380Y7751330D01*
X2229160Y7734390D01*
X2234240Y7714080D01*
X2231700Y7693750D01*
X2221540Y7676820D01*
X2170740Y7642950D01*
X2147880Y7619250D01*
X2132640Y7585370D01*
X2127560Y7554900D01*
X2234240D01*
G01X2384100D02*
X2401880Y7558290D01*
X2422200Y7568440D01*
X2434900Y7585370D01*
X2439980Y7609090D01*
X2434900Y7632790D01*
X2419660Y7653110D01*
X2396800Y7663270D01*
X2371400D01*
X2356160Y7670050D01*
X2343460Y7686980D01*
X2338380Y7710680D01*
X2346000Y7734390D01*
X2363780Y7751330D01*
X2384100Y7758100D01*
X2404420Y7751330D01*
X2422200Y7734390D01*
X2429820Y7710680D01*
X2424740Y7686980D01*
X2412040Y7670050D01*
X2396800Y7663270D01*
X2371400D01*
X2348540Y7653110D01*
X2333300Y7632790D01*
X2328220Y7609090D01*
X2333300Y7585370D01*
X2346000Y7568440D01*
X2366320Y7558290D01*
X2384100Y7554900D01*
G01X1124130Y7896130D02*
Y7974870D01*
X1147490D01*
X1155280Y7970930D01*
X1161130Y7961750D01*
X1163070Y7951250D01*
X1161130Y7940750D01*
X1156260Y7932870D01*
X1147490Y7928940D01*
X1124130D01*
G01X1222340Y7896130D02*
X1216500Y7897440D01*
X1210660Y7902690D01*
X1206760Y7911880D01*
X1204810Y7922380D01*
X1206760Y7932870D01*
X1210660Y7942060D01*
X1216500Y7947310D01*
X1222340Y7948620D01*
X1228180Y7947310D01*
X1234020Y7942060D01*
X1237920Y7932870D01*
X1238890Y7922380D01*
X1237920Y7911880D01*
X1234020Y7902690D01*
X1228180Y7897440D01*
X1222340Y7896130D01*
G01X1301080D02*
Y7974870D01*
G01X1379820Y7948620D02*
Y7896130D01*
G01Y7969620D02*
X1377870Y7970930D01*
Y7973560D01*
X1379820Y7974870D01*
X1381770Y7973560D01*
Y7970930D01*
X1379820Y7969620D01*
G01X1458560Y7974870D02*
Y7896130D01*
G01X1444930Y7948620D02*
X1472190D01*
G01X1522700Y7931560D02*
X1553850D01*
X1550930Y7940750D01*
X1546060Y7946000D01*
X1539250Y7948620D01*
X1532430Y7947310D01*
X1526590Y7943370D01*
X1522700Y7934190D01*
X1520750Y7926310D01*
Y7918440D01*
X1522700Y7910560D01*
X1527560Y7902690D01*
X1533410Y7897440D01*
X1540220Y7896130D01*
X1547040Y7898750D01*
X1553850Y7906630D01*
G01X1631620Y7942060D02*
X1624800Y7947310D01*
X1618960Y7948620D01*
X1611170Y7946000D01*
X1605330Y7940750D01*
X1601440Y7931560D01*
X1600460Y7922380D01*
X1601440Y7913190D01*
X1605330Y7905310D01*
X1611170Y7898750D01*
X1618960Y7896130D01*
X1625780Y7898750D01*
X1631620Y7904000D01*
G01X1678230Y7896130D02*
Y7948620D01*
G01Y7935500D02*
X1682120Y7942060D01*
X1687960Y7947310D01*
X1695750Y7948620D01*
X1702570Y7947310D01*
X1708410Y7942060D01*
X1711330Y7932870D01*
Y7896130D01*
G01X1773520Y7948620D02*
Y7896130D01*
G01Y7969620D02*
X1771570Y7970930D01*
Y7973560D01*
X1773520Y7974870D01*
X1775470Y7973560D01*
Y7970930D01*
X1773520Y7969620D01*
G01X1867840Y7942060D02*
X1861020Y7947310D01*
X1855180Y7948620D01*
X1847390Y7946000D01*
X1841550Y7940750D01*
X1837660Y7931560D01*
X1836680Y7922380D01*
X1837660Y7913190D01*
X1841550Y7905310D01*
X1847390Y7898750D01*
X1855180Y7896130D01*
X1862000Y7898750D01*
X1867840Y7904000D01*
G01X1931000Y7896130D02*
X1925160Y7897440D01*
X1919320Y7902690D01*
X1915420Y7911880D01*
X1913470Y7922380D01*
X1915420Y7932870D01*
X1919320Y7942060D01*
X1925160Y7947310D01*
X1931000Y7948620D01*
X1936840Y7947310D01*
X1942680Y7942060D01*
X1946580Y7932870D01*
X1947550Y7922380D01*
X1946580Y7911880D01*
X1942680Y7902690D01*
X1936840Y7897440D01*
X1931000Y7896130D01*
G01X2106010Y7974870D02*
Y7896130D01*
G01Y7907940D02*
X2102110Y7901380D01*
X2096270Y7897440D01*
X2089450Y7896130D01*
X2081660Y7898750D01*
X2075820Y7905310D01*
X2071930Y7913190D01*
X2070950Y7922380D01*
X2071930Y7931560D01*
X2075820Y7939440D01*
X2081660Y7946000D01*
X2089450Y7948620D01*
X2096270Y7947310D01*
X2101140Y7944690D01*
X2106010Y7939440D01*
G01X2167220Y7948620D02*
Y7896130D01*
G01Y7969620D02*
X2165270Y7970930D01*
Y7973560D01*
X2167220Y7974870D01*
X2169170Y7973560D01*
Y7970930D01*
X2167220Y7969620D01*
G01X2324700Y7974870D02*
Y7896130D01*
G01X2302310Y7974870D02*
X2347090D01*
G01X2403440Y7896130D02*
X2397600Y7897440D01*
X2391760Y7902690D01*
X2387860Y7911880D01*
X2385910Y7922380D01*
X2387860Y7932870D01*
X2391760Y7942060D01*
X2397600Y7947310D01*
X2403440Y7948620D01*
X2409280Y7947310D01*
X2415120Y7942060D01*
X2419020Y7932870D01*
X2419990Y7922380D01*
X2419020Y7911880D01*
X2415120Y7902690D01*
X2409280Y7897440D01*
X2403440Y7896130D01*
G01X2468550D02*
Y7948620D01*
G01Y7938130D02*
X2473420Y7943370D01*
X2478290Y7947310D01*
X2485100Y7948620D01*
X2489970Y7947310D01*
X2495810Y7943370D01*
G01X2560920Y7948620D02*
Y7896130D01*
G01Y7969620D02*
X2558970Y7970930D01*
Y7973560D01*
X2560920Y7974870D01*
X2562870Y7973560D01*
Y7970930D01*
X2560920Y7969620D01*
G01X2623110Y7896130D02*
Y7948620D01*
G01Y7935500D02*
X2627000Y7942060D01*
X2632840Y7947310D01*
X2640630Y7948620D01*
X2647450Y7947310D01*
X2653290Y7942060D01*
X2656210Y7932870D01*
Y7896130D01*
G01X2718400D02*
X2712560Y7897440D01*
X2706720Y7902690D01*
X2702820Y7911880D01*
X2700870Y7922380D01*
X2702820Y7932870D01*
X2706720Y7942060D01*
X2712560Y7947310D01*
X2718400Y7948620D01*
X2724240Y7947310D01*
X2730080Y7942060D01*
X2733980Y7932870D01*
X2734950Y7922380D01*
X2733980Y7911880D01*
X2730080Y7902690D01*
X2724240Y7897440D01*
X2718400Y7896130D01*
G01X1120600Y8118400D02*
X1184100Y8321600D01*
X1247600Y8118400D01*
G01X1224740Y8189520D02*
X1143460D01*
G01X1407620Y8226770D02*
X1417780Y8236930D01*
X1425400Y8253860D01*
X1430480Y8277580D01*
X1425400Y8297890D01*
X1415240Y8311440D01*
X1397460Y8321600D01*
X1328880D01*
Y8118400D01*
X1412700D01*
X1430480Y8131940D01*
X1440640Y8152270D01*
X1445720Y8175970D01*
X1440640Y8199680D01*
X1425400Y8220000D01*
X1407620Y8226770D01*
X1328880D01*
G01X1534620Y8118400D02*
Y8321600D01*
X1585420D01*
X1605740Y8311440D01*
X1620980Y8297890D01*
X1633680Y8277580D01*
X1643840Y8253860D01*
X1646380Y8220000D01*
X1643840Y8186130D01*
X1633680Y8162420D01*
X1620980Y8142100D01*
X1605740Y8128560D01*
X1585420Y8118400D01*
X1534620D01*
G01X1727660D02*
Y8321600D01*
X1793700Y8152270D01*
X1859740Y8321600D01*
Y8118400D01*
G01X2136600D02*
X2200100Y8321600D01*
X2263600Y8118400D01*
G01X2240740Y8189520D02*
X2159460D01*
G01X2352500Y8321600D02*
Y8118400D01*
X2454100D01*
G01X2543000D02*
X2606500Y8321600D01*
X2670000Y8118400D01*
G01X2647140Y8189520D02*
X2565860D01*
G01X2758900Y8118400D02*
Y8321600D01*
X2822400D01*
X2842720Y8311440D01*
X2855420Y8297890D01*
X2860500Y8270800D01*
X2855420Y8243700D01*
X2840180Y8226770D01*
X2822400Y8216610D01*
X2758900D01*
G01X2822400D02*
X2860500Y8118400D01*
G01X2946860D02*
Y8321600D01*
X3012900Y8152270D01*
X3078940Y8321600D01*
Y8118400D01*
G01X1546210Y1470870D02*
Y1414440D01*
X1550100Y1402630D01*
X1557890Y1394750D01*
X1567630Y1392130D01*
X1577370Y1394750D01*
X1585160Y1402630D01*
X1589050Y1414440D01*
Y1470870D01*
G01X1646370Y1392130D02*
Y1470870D01*
X1634690Y1455120D01*
G01Y1392130D02*
X1658050D01*
G01X1354990Y1626870D02*
Y1570440D01*
X1358880Y1558630D01*
X1366670Y1550750D01*
X1376410Y1548130D01*
X1386150Y1550750D01*
X1393940Y1558630D01*
X1397830Y1570440D01*
Y1626870D01*
G01X1434700Y1558630D02*
X1442490Y1552070D01*
X1451260Y1548130D01*
X1459040D01*
X1466830Y1552070D01*
X1472680Y1558630D01*
X1475600Y1567820D01*
X1473650Y1577000D01*
X1468780Y1584870D01*
X1460020Y1590130D01*
X1448330Y1592750D01*
X1441520Y1598000D01*
X1438600Y1607180D01*
X1440550Y1616370D01*
X1445410Y1622930D01*
X1452230Y1626870D01*
X1459040D01*
X1465860Y1624250D01*
X1471700Y1617680D01*
G01X1541680Y1590130D02*
X1545570Y1594060D01*
X1548490Y1600620D01*
X1550440Y1609810D01*
X1548490Y1617680D01*
X1544600Y1622930D01*
X1537780Y1626870D01*
X1511500D01*
Y1548130D01*
X1543630D01*
X1550440Y1553380D01*
X1554340Y1561250D01*
X1556280Y1570440D01*
X1554340Y1579620D01*
X1548490Y1587500D01*
X1541680Y1590130D01*
X1511500D01*
G01X1712790Y1620310D02*
X1706950Y1624250D01*
X1700130Y1626870D01*
X1692340D01*
X1683580Y1622930D01*
X1676770Y1616370D01*
X1671900Y1608500D01*
X1668000Y1595370D01*
X1667030Y1583560D01*
X1668980Y1571750D01*
X1671900Y1563880D01*
X1677740Y1556000D01*
X1684550Y1550750D01*
X1691370Y1548130D01*
X1698190D01*
X1705000Y1550750D01*
X1710840Y1554690D01*
X1715710Y1559940D01*
G01X1770110Y1548130D02*
X1762320Y1549440D01*
X1755510Y1554690D01*
X1749660Y1562560D01*
X1745770Y1571750D01*
X1743820Y1582250D01*
Y1592750D01*
X1745770Y1603250D01*
X1749660Y1612440D01*
X1755510Y1620310D01*
X1762320Y1625560D01*
X1770110Y1626870D01*
X1777900Y1625560D01*
X1784710Y1620310D01*
X1790560Y1612440D01*
X1794450Y1603250D01*
X1796400Y1592750D01*
Y1582250D01*
X1794450Y1571750D01*
X1790560Y1562560D01*
X1784710Y1554690D01*
X1777900Y1549440D01*
X1770110Y1548130D01*
G01X1826460D02*
Y1626870D01*
X1871240Y1548130D01*
Y1626870D01*
G01X1905200Y1548130D02*
Y1626870D01*
X1949980Y1548130D01*
Y1626870D01*
G01X1787300Y1426400D02*
G03I-25700J0D01*
G01X1646130Y4788710D02*
X1702560D01*
X1714370Y4792600D01*
X1722250Y4800390D01*
X1724870Y4810130D01*
X1722250Y4819870D01*
X1714370Y4827660D01*
X1702560Y4831550D01*
X1646130D01*
G01X1692060Y4870370D02*
X1682870Y4877190D01*
X1677630Y4883030D01*
X1675000Y4890820D01*
X1677630Y4897630D01*
X1682870Y4902500D01*
X1690750Y4906400D01*
X1699940Y4907370D01*
X1707810Y4906400D01*
X1715690Y4902500D01*
X1722250Y4896660D01*
X1724870Y4889840D01*
X1722250Y4882050D01*
X1714370Y4875240D01*
X1702560Y4871340D01*
X1689440Y4870370D01*
X1672380Y4872320D01*
X1663190Y4875240D01*
X1654000Y4880110D01*
X1647440Y4886920D01*
X1646130Y4893740D01*
X1648750Y4900550D01*
X1655320Y4905420D01*
G01X3098000Y2150000D02*
Y2640000D01*
X2108000D01*
Y2150000D01*
X3098000D01*
G01X2191720Y2904630D02*
X2195610Y2908560D01*
X2198530Y2915120D01*
X2200480Y2924310D01*
X2198530Y2932180D01*
X2194640Y2937430D01*
X2187820Y2941370D01*
X2161540D01*
Y2862630D01*
X2193670D01*
X2200480Y2867880D01*
X2204380Y2875750D01*
X2206320Y2884940D01*
X2204380Y2894120D01*
X2198530Y2902000D01*
X2191720Y2904630D01*
X2161540D01*
G01X2238330Y2862630D02*
X2262670Y2941370D01*
X2287010Y2862630D01*
G01X2278250Y2890190D02*
X2247090D01*
G01X2341410Y2941370D02*
Y2862630D01*
G01X2319020Y2941370D02*
X2363800D01*
G01X2420150D02*
Y2862630D01*
G01X2397760Y2941370D02*
X2442540D01*
G01X2518360Y2862630D02*
X2479420D01*
Y2941370D01*
X2518360D01*
G01X2502780Y2903310D02*
X2479420D01*
G01X2558160Y2862630D02*
Y2941370D01*
X2582500D01*
X2590290Y2937430D01*
X2595160Y2932180D01*
X2597100Y2921680D01*
X2595160Y2911190D01*
X2589310Y2904630D01*
X2582500Y2900690D01*
X2558160D01*
G01X2582500D02*
X2597100Y2862630D01*
G01X2656370D02*
Y2898060D01*
X2636900Y2941370D01*
G01X2675840D02*
X2656370Y2898060D01*
G01X2835270Y2934810D02*
X2829430Y2938750D01*
X2822610Y2941370D01*
X2814820D01*
X2806060Y2937430D01*
X2799250Y2930870D01*
X2794380Y2923000D01*
X2790480Y2909870D01*
X2789510Y2898060D01*
X2791460Y2886250D01*
X2794380Y2878380D01*
X2800220Y2870500D01*
X2807030Y2865250D01*
X2813850Y2862630D01*
X2820670D01*
X2827480Y2865250D01*
X2833320Y2869190D01*
X2838190Y2874440D01*
G01X2892590Y2862630D02*
X2884800Y2863940D01*
X2877990Y2869190D01*
X2872140Y2877060D01*
X2868250Y2886250D01*
X2866300Y2896750D01*
Y2907250D01*
X2868250Y2917750D01*
X2872140Y2926940D01*
X2877990Y2934810D01*
X2884800Y2940060D01*
X2892590Y2941370D01*
X2900380Y2940060D01*
X2907190Y2934810D01*
X2913040Y2926940D01*
X2916930Y2917750D01*
X2918880Y2907250D01*
Y2896750D01*
X2916930Y2886250D01*
X2913040Y2877060D01*
X2907190Y2869190D01*
X2900380Y2863940D01*
X2892590Y2862630D01*
G01X2948940D02*
Y2941370D01*
X2993720Y2862630D01*
Y2941370D01*
G01X3027680Y2862630D02*
Y2941370D01*
X3072460Y2862630D01*
Y2941370D01*
G01X2207000Y5516500D02*
Y5391500D01*
X2407000D01*
Y5516500D01*
X2207000D01*
G01X2187670Y6791130D02*
X2179880Y6792440D01*
X2173070Y6797690D01*
X2167220Y6805560D01*
X2163330Y6814750D01*
X2161380Y6825250D01*
Y6835750D01*
X2163330Y6846250D01*
X2167220Y6855440D01*
X2173070Y6863310D01*
X2179880Y6868560D01*
X2187670Y6869870D01*
X2195460Y6868560D01*
X2202270Y6863310D01*
X2208120Y6855440D01*
X2212010Y6846250D01*
X2213960Y6835750D01*
Y6825250D01*
X2212010Y6814750D01*
X2208120Y6805560D01*
X2202270Y6797690D01*
X2195460Y6792440D01*
X2187670Y6791130D01*
G01X2244020D02*
Y6869870D01*
X2288800Y6791130D01*
Y6869870D01*
G01X2332490Y6817380D02*
X2357810D01*
G01X2423890Y6791130D02*
X2416100Y6792440D01*
X2409290Y6797690D01*
X2403440Y6805560D01*
X2399550Y6814750D01*
X2397600Y6825250D01*
Y6835750D01*
X2399550Y6846250D01*
X2403440Y6855440D01*
X2409290Y6863310D01*
X2416100Y6868560D01*
X2423890Y6869870D01*
X2431680Y6868560D01*
X2438490Y6863310D01*
X2444340Y6855440D01*
X2448230Y6846250D01*
X2450180Y6835750D01*
Y6825250D01*
X2448230Y6814750D01*
X2444340Y6805560D01*
X2438490Y6797690D01*
X2431680Y6792440D01*
X2423890Y6791130D01*
G01X2484130D02*
Y6869870D01*
X2521130D01*
G01X2507500Y6831810D02*
X2484130D01*
G01X2562870Y6791130D02*
Y6869870D01*
X2599870D01*
G01X2586240Y6831810D02*
X2562870D01*
G01X2719380Y6869870D02*
Y6791130D01*
X2758320D01*
G01X2837060D02*
X2798120D01*
Y6869870D01*
X2837060D01*
G01X2821480Y6831810D02*
X2798120D01*
G01X2874910Y6791130D02*
Y6869870D01*
X2894380D01*
X2902170Y6865930D01*
X2908010Y6860680D01*
X2912880Y6852810D01*
X2916780Y6843620D01*
X2917750Y6830500D01*
X2916780Y6817380D01*
X2912880Y6808190D01*
X2908010Y6800310D01*
X2902170Y6795070D01*
X2894380Y6791130D01*
X2874910D01*
G01X2594630Y1266630D02*
X2586840Y1267940D01*
X2580030Y1273190D01*
X2574180Y1281060D01*
X2570290Y1290250D01*
X2568340Y1300750D01*
Y1311250D01*
X2570290Y1321750D01*
X2574180Y1330940D01*
X2580030Y1338810D01*
X2586840Y1344060D01*
X2594630Y1345370D01*
X2602420Y1344060D01*
X2609230Y1338810D01*
X2615080Y1330940D01*
X2618970Y1321750D01*
X2620920Y1311250D01*
Y1300750D01*
X2618970Y1290250D01*
X2615080Y1281060D01*
X2609230Y1273190D01*
X2602420Y1267940D01*
X2594630Y1266630D01*
G01X2650980D02*
Y1345370D01*
X2695760Y1266630D01*
Y1345370D01*
G01X2410500Y2017500D02*
X2306500D01*
G01X2555210Y2785370D02*
Y2728940D01*
X2559100Y2717130D01*
X2566890Y2709250D01*
X2576630Y2706630D01*
X2586370Y2709250D01*
X2594160Y2717130D01*
X2598050Y2728940D01*
Y2785370D01*
G01X2633950Y2722380D02*
X2639790Y2713190D01*
X2647580Y2707940D01*
X2656340Y2706630D01*
X2664130Y2707940D01*
X2671920Y2714500D01*
X2676790Y2722380D01*
X2677760Y2730250D01*
X2675820Y2739440D01*
X2669000Y2746000D01*
X2662190Y2748630D01*
X2653420D01*
G01X2662190D02*
X2668030Y2752560D01*
X2672900Y2759120D01*
X2674840Y2767000D01*
X2672900Y2774870D01*
X2668030Y2781430D01*
X2659260Y2785370D01*
X2650500Y2784060D01*
X2641740Y2778810D01*
G01X2278550Y5657310D02*
X2272710Y5661250D01*
X2265890Y5663870D01*
X2258100D01*
X2249340Y5659930D01*
X2242530Y5653370D01*
X2237660Y5645500D01*
X2233760Y5632370D01*
X2232790Y5620560D01*
X2234740Y5608750D01*
X2237660Y5600880D01*
X2243500Y5593000D01*
X2250310Y5587750D01*
X2257130Y5585130D01*
X2263950D01*
X2270760Y5587750D01*
X2276600Y5591690D01*
X2281470Y5596940D01*
G01X2314450D02*
X2320290Y5590380D01*
X2327110Y5586440D01*
X2335870Y5585130D01*
X2344630Y5587750D01*
X2351450Y5593000D01*
X2356320Y5602190D01*
X2357290Y5612690D01*
X2355340Y5623190D01*
X2350470Y5629750D01*
X2343660Y5635000D01*
X2336840Y5636310D01*
X2330030Y5635000D01*
X2321270Y5629750D01*
X2324190Y5663870D01*
X2350470D01*
G01X4350000Y1030000D02*
Y1590000D01*
X2850000D01*
Y1030000D01*
X4350000D01*
G01X2856000Y2108500D02*
Y1937500D01*
G01X2762500Y2020500D02*
X2952000D01*
G01X2857960Y4810460D02*
X2853900Y4813630D01*
X2849160Y4815750D01*
X2843740D01*
X2837640Y4812570D01*
X2832900Y4807280D01*
X2829510Y4800930D01*
X2826800Y4790350D01*
X2826130Y4780820D01*
X2827480Y4771300D01*
X2829510Y4764950D01*
X2833580Y4758600D01*
X2838320Y4754370D01*
X2843060Y4752250D01*
X2847800D01*
X2852540Y4754370D01*
X2856610Y4757540D01*
X2859990Y4761770D01*
G01X2898940Y4752250D02*
X2903680Y4753310D01*
X2909100Y4756480D01*
X2912490Y4761770D01*
X2913840Y4769180D01*
X2912490Y4776590D01*
X2908420Y4782940D01*
X2902330Y4786120D01*
X2895550D01*
X2891490Y4788230D01*
X2888100Y4793520D01*
X2886750Y4800930D01*
X2888780Y4808340D01*
X2893520Y4813630D01*
X2898940Y4815750D01*
X2904360Y4813630D01*
X2909100Y4808340D01*
X2911130Y4800930D01*
X2909780Y4793520D01*
X2906390Y4788230D01*
X2902330Y4786120D01*
X2895550D01*
X2889460Y4782940D01*
X2885390Y4776590D01*
X2884040Y4769180D01*
X2885390Y4761770D01*
X2888780Y4756480D01*
X2894200Y4753310D01*
X2898940Y4752250D01*
G01X3207000Y4752500D02*
Y4832500D01*
X3047000D01*
Y4752500D01*
X3207000D01*
G01X2849460Y5075460D02*
X2845400Y5078630D01*
X2840660Y5080750D01*
X2835240D01*
X2829140Y5077570D01*
X2824400Y5072280D01*
X2821010Y5065930D01*
X2818300Y5055350D01*
X2817630Y5045820D01*
X2818980Y5036300D01*
X2821010Y5029950D01*
X2825080Y5023600D01*
X2829820Y5019370D01*
X2834560Y5017250D01*
X2839300D01*
X2844040Y5019370D01*
X2848110Y5022540D01*
X2851490Y5026770D01*
G01X2878920Y5024660D02*
X2883670Y5019370D01*
X2889090Y5017250D01*
X2894500Y5019370D01*
X2899250Y5025710D01*
X2902630Y5035240D01*
X2903990Y5044770D01*
Y5056410D01*
X2902630Y5065930D01*
X2899250Y5074400D01*
X2895180Y5078630D01*
X2890440Y5080750D01*
X2885020Y5078630D01*
X2880960Y5074400D01*
X2878250Y5068050D01*
X2876890Y5059580D01*
X2878250Y5052180D01*
X2881630Y5044770D01*
X2885700Y5040530D01*
X2890440Y5039470D01*
X2895860Y5041590D01*
X2899920Y5046880D01*
X2903990Y5056410D01*
G01X3198000Y5002500D02*
Y5082500D01*
X3038000D01*
Y5002500D01*
X3198000D01*
G01X2834500Y5456500D02*
X2709500D01*
Y5256500D01*
X2834500D01*
Y5456500D01*
G01X3082010Y5279250D02*
Y5215750D01*
X3109110D01*
G01X3151440D02*
Y5279250D01*
X3143310Y5266550D01*
G01Y5215750D02*
X3159570D01*
G01X2737190Y5606550D02*
X2733250Y5600710D01*
X2730630Y5593890D01*
Y5586100D01*
X2734570Y5577340D01*
X2741130Y5570530D01*
X2749000Y5565660D01*
X2762130Y5561760D01*
X2773940Y5560790D01*
X2785750Y5562740D01*
X2793620Y5565660D01*
X2801500Y5571500D01*
X2806750Y5578310D01*
X2809370Y5585130D01*
Y5591950D01*
X2806750Y5598760D01*
X2802810Y5604600D01*
X2797560Y5609470D01*
G01X2809370Y5661920D02*
X2792310Y5663870D01*
X2777880Y5666790D01*
X2764750Y5670690D01*
X2750320Y5675550D01*
X2730630Y5683340D01*
Y5644400D01*
G01X3093000Y5506500D02*
Y5401500D01*
X3253000D01*
Y5506500D01*
X3093000D01*
G01X3395750Y6830500D02*
G03I-158750J0D01*
G01X2884660Y7276630D02*
Y7355370D01*
X2909000D01*
X2916790Y7351430D01*
X2921660Y7346180D01*
X2923600Y7335680D01*
X2921660Y7325190D01*
X2915810Y7318630D01*
X2909000Y7314690D01*
X2884660D01*
G01X2909000D02*
X2923600Y7276630D01*
G01X2966320Y7285810D02*
X2973130Y7279250D01*
X2980920Y7276630D01*
X2988710Y7279250D01*
X2995530Y7287130D01*
X3000400Y7298940D01*
X3002340Y7310750D01*
Y7325190D01*
X3000400Y7337000D01*
X2995530Y7347500D01*
X2989690Y7352750D01*
X2982870Y7355370D01*
X2975080Y7352750D01*
X2969240Y7347500D01*
X2965340Y7339620D01*
X2963400Y7329120D01*
X2965340Y7319940D01*
X2970210Y7310750D01*
X2976050Y7305500D01*
X2982870Y7304190D01*
X2990660Y7306810D01*
X2996500Y7313370D01*
X3002340Y7325190D01*
G01X3260000Y1220000D02*
Y1030000D01*
X3940000D01*
Y1220000D01*
X3260000D01*
G01X3505810Y1670130D02*
X3513600Y1663570D01*
X3522370Y1659630D01*
X3530150D01*
X3537940Y1663570D01*
X3543790Y1670130D01*
X3546710Y1679320D01*
X3544760Y1688500D01*
X3539890Y1696370D01*
X3531130Y1701630D01*
X3519440Y1704250D01*
X3512630Y1709500D01*
X3509710Y1718680D01*
X3511660Y1727870D01*
X3516520Y1734430D01*
X3523340Y1738370D01*
X3530150D01*
X3536970Y1735750D01*
X3542810Y1729180D01*
G01X3575790Y1738370D02*
X3589420Y1659630D01*
X3605000Y1738370D01*
X3620580Y1659630D01*
X3634210Y1738370D01*
G01X3683740Y1659630D02*
Y1738370D01*
X3672060Y1722620D01*
G01Y1659630D02*
X3695420D01*
G01X3370710Y1490000D02*
G03I-70710J0D01*
G01X3479050Y2116810D02*
X3473210Y2120750D01*
X3466390Y2123370D01*
X3458600D01*
X3449840Y2119430D01*
X3443030Y2112870D01*
X3438160Y2105000D01*
X3434260Y2091870D01*
X3433290Y2080060D01*
X3435240Y2068250D01*
X3438160Y2060380D01*
X3444000Y2052500D01*
X3450810Y2047250D01*
X3457630Y2044630D01*
X3464450D01*
X3471260Y2047250D01*
X3477100Y2051190D01*
X3481970Y2056440D01*
G01X3517870Y2110250D02*
X3523710Y2118120D01*
X3530530Y2122060D01*
X3538320Y2123370D01*
X3548050Y2120750D01*
X3554870Y2114180D01*
X3556820Y2106310D01*
X3555840Y2098430D01*
X3551950Y2091870D01*
X3532480Y2078750D01*
X3523710Y2069560D01*
X3517870Y2056440D01*
X3515920Y2044630D01*
X3556820D01*
G01X3600000Y2148500D02*
Y2273500D01*
X3400000D01*
Y2148500D01*
X3600000D01*
G01X3485050Y2591810D02*
X3479210Y2595750D01*
X3472390Y2598370D01*
X3464600D01*
X3455840Y2594430D01*
X3449030Y2587870D01*
X3444160Y2580000D01*
X3440260Y2566870D01*
X3439290Y2555060D01*
X3441240Y2543250D01*
X3444160Y2535380D01*
X3450000Y2527500D01*
X3456810Y2522250D01*
X3463630Y2519630D01*
X3470450D01*
X3477260Y2522250D01*
X3483100Y2526190D01*
X3487970Y2531440D01*
G01X3542370Y2519630D02*
Y2598370D01*
X3530690Y2582620D01*
G01Y2519630D02*
X3554050D01*
G01X3600000Y2373500D02*
Y2498500D01*
X3400000D01*
Y2373500D01*
X3600000D01*
G01X3422120Y4872630D02*
X3386690D01*
X3343380Y4853160D01*
G01Y4892100D02*
X3386690Y4872630D01*
G01X3422120Y4951370D02*
X3343380D01*
X3359130Y4939690D01*
G01X3422120D02*
Y4963050D01*
G01X3606750Y5077500D02*
X3456750D01*
Y4757500D01*
X3606750D01*
Y5077500D01*
G01X3221000Y5298500D02*
Y5193500D01*
X3381000D01*
Y5298500D01*
X3221000D01*
G01X3606810Y5818950D02*
X3610750Y5824790D01*
X3613370Y5831610D01*
Y5839400D01*
X3609430Y5848160D01*
X3602870Y5854970D01*
X3595000Y5859840D01*
X3581870Y5863740D01*
X3570060Y5864710D01*
X3558250Y5862760D01*
X3550380Y5859840D01*
X3542500Y5854000D01*
X3537250Y5847190D01*
X3534630Y5840370D01*
Y5833550D01*
X3537250Y5826740D01*
X3541190Y5820900D01*
X3546440Y5816030D01*
G01X3567440Y5780130D02*
X3576630Y5773310D01*
X3581870Y5767470D01*
X3584500Y5759680D01*
X3581870Y5752870D01*
X3576630Y5748000D01*
X3568750Y5744100D01*
X3559560Y5743130D01*
X3551690Y5744100D01*
X3543810Y5748000D01*
X3537250Y5753840D01*
X3534630Y5760660D01*
X3537250Y5768450D01*
X3545130Y5775260D01*
X3556940Y5779160D01*
X3570060Y5780130D01*
X3587120Y5778180D01*
X3596310Y5775260D01*
X3605500Y5770390D01*
X3612060Y5763580D01*
X3613370Y5756760D01*
X3610750Y5749950D01*
X3604180Y5745080D01*
G01X3515500Y5451500D02*
X3640500D01*
Y5651500D01*
X3515500D01*
Y5451500D01*
G01X3131010Y5613750D02*
Y5550250D01*
X3158110D01*
G01X3187570Y5603170D02*
X3191630Y5609520D01*
X3196380Y5612690D01*
X3201790Y5613750D01*
X3208570Y5611630D01*
X3213310Y5606340D01*
X3214660Y5599990D01*
X3213990Y5593640D01*
X3211280Y5588350D01*
X3197730Y5577770D01*
X3191630Y5570360D01*
X3187570Y5559770D01*
X3186220Y5550250D01*
X3214660D01*
G01X3173210Y6517630D02*
Y6596370D01*
X3192680D01*
X3200470Y6592430D01*
X3206310Y6587180D01*
X3211180Y6579310D01*
X3215080Y6570120D01*
X3216050Y6557000D01*
X3215080Y6543880D01*
X3211180Y6534690D01*
X3206310Y6526810D01*
X3200470Y6521570D01*
X3192680Y6517630D01*
X3173210D01*
G01X3285050D02*
Y6596370D01*
X3249030Y6539940D01*
X3297710D01*
G01X3348300Y6943700D02*
Y6717500D01*
G01X3603850Y7357500D02*
G03I-52350J0D01*
G01X3307500Y7250500D02*
Y7375500D01*
X3107500D01*
Y7250500D01*
X3307500D01*
G01X3331130Y7739840D02*
X3387560D01*
X3399370Y7743730D01*
X3407250Y7751520D01*
X3409870Y7761260D01*
X3407250Y7771000D01*
X3399370Y7778790D01*
X3387560Y7782680D01*
X3331130D01*
G01X3409870Y7840000D02*
X3331130D01*
X3346880Y7828320D01*
G01X3409870D02*
Y7851680D01*
G01X3331130Y7918740D02*
X3333750Y7910950D01*
X3340320Y7905110D01*
X3348190Y7901210D01*
X3358690Y7898290D01*
X3370500Y7897320D01*
X3382310Y7898290D01*
X3392810Y7901210D01*
X3400690Y7905110D01*
X3407250Y7910950D01*
X3409870Y7918740D01*
X3407250Y7926530D01*
X3400690Y7932370D01*
X3392810Y7936270D01*
X3382310Y7939190D01*
X3370500Y7940160D01*
X3358690Y7939190D01*
X3348190Y7936270D01*
X3340320Y7932370D01*
X3333750Y7926530D01*
X3331130Y7918740D01*
G01X4562500Y7840500D02*
G03I-550000J0D01*
G01X4220000Y2188000D02*
Y2388000D01*
X3920000D01*
Y2188000D01*
X4220000D01*
G01X3926000Y2419000D02*
G03I-20000J0D01*
G01X3921020Y4776960D02*
X3916960Y4780130D01*
X3912220Y4782250D01*
X3906800D01*
X3900700Y4779070D01*
X3895960Y4773780D01*
X3892570Y4767430D01*
X3889860Y4756850D01*
X3889190Y4747320D01*
X3890540Y4737800D01*
X3892570Y4731450D01*
X3896640Y4725100D01*
X3901380Y4720870D01*
X3906120Y4718750D01*
X3910860D01*
X3915600Y4720870D01*
X3919670Y4724040D01*
X3923050Y4728270D01*
G01X3962000Y4718750D02*
Y4782250D01*
X3953870Y4769550D01*
G01Y4718750D02*
X3970130D01*
G01X4017880D02*
Y4782250D01*
X4009750Y4769550D01*
G01Y4718750D02*
X4026010D01*
G01X3717810Y4797500D02*
G03I-36060J0D01*
G01X3871130Y5440710D02*
X3927560D01*
X3939370Y5444600D01*
X3947250Y5452390D01*
X3949870Y5462130D01*
X3947250Y5471870D01*
X3939370Y5479660D01*
X3927560Y5483550D01*
X3871130D01*
G01X3938060Y5519450D02*
X3944620Y5525290D01*
X3948560Y5532110D01*
X3949870Y5540870D01*
X3947250Y5549630D01*
X3942000Y5556450D01*
X3932810Y5561320D01*
X3922310Y5562290D01*
X3911810Y5560340D01*
X3905250Y5555470D01*
X3900000Y5548660D01*
X3898690Y5541840D01*
X3900000Y5535030D01*
X3905250Y5526270D01*
X3871130Y5529190D01*
Y5555470D01*
G01X4044480Y5876540D02*
X4048540Y5873370D01*
X4053280Y5871250D01*
X4058700D01*
X4064800Y5874430D01*
X4069540Y5879720D01*
X4072930Y5886070D01*
X4075640Y5896650D01*
X4076310Y5906180D01*
X4074960Y5915700D01*
X4072930Y5922050D01*
X4068860Y5928400D01*
X4064120Y5932630D01*
X4059380Y5934750D01*
X4054640D01*
X4049900Y5932630D01*
X4045830Y5929460D01*
X4042450Y5925230D01*
G01X4003500Y5934750D02*
Y5871250D01*
X4011630Y5883950D01*
G01Y5934750D02*
X3995370D01*
G01X3948970D02*
X3947620Y5920990D01*
X3945590Y5909350D01*
X3942880Y5898770D01*
X3939490Y5887130D01*
X3934070Y5871250D01*
X3961170D01*
G01X4054000Y5790000D02*
Y5840000D01*
X3954000D01*
Y5790000D01*
X4054000D01*
G01X3863570Y6896250D02*
Y6959750D01*
X3880510D01*
X3885930Y6956570D01*
X3889310Y6952340D01*
X3890670Y6943870D01*
X3889310Y6935410D01*
X3885250Y6930120D01*
X3880510Y6926940D01*
X3863570D01*
G01X3880510D02*
X3890670Y6896250D01*
G01X3933000D02*
Y6959750D01*
X3924870Y6947050D01*
G01Y6896250D02*
X3941130D01*
G01X3988880Y6959750D02*
X3983460Y6957630D01*
X3979400Y6952340D01*
X3976690Y6945990D01*
X3974660Y6937520D01*
X3973980Y6928000D01*
X3974660Y6918470D01*
X3976690Y6910010D01*
X3979400Y6903660D01*
X3983460Y6898370D01*
X3988880Y6896250D01*
X3994300Y6898370D01*
X3998360Y6903660D01*
X4001070Y6910010D01*
X4003100Y6918470D01*
X4003780Y6928000D01*
X4003100Y6937520D01*
X4001070Y6945990D01*
X3998360Y6952340D01*
X3994300Y6957630D01*
X3988880Y6959750D01*
G01X3883000Y6836500D02*
Y6786500D01*
X3983000D01*
Y6836500D01*
X3883000D01*
G01X3608450Y6682750D02*
Y6746250D01*
X3626060Y6693330D01*
X3643670Y6746250D01*
Y6682750D01*
G01X3667040Y6695450D02*
X3671100Y6688040D01*
X3676520Y6683810D01*
X3682620Y6682750D01*
X3688040Y6683810D01*
X3693460Y6689100D01*
X3696840Y6695450D01*
X3697520Y6701800D01*
X3696160Y6709210D01*
X3691420Y6714500D01*
X3686680Y6716620D01*
X3680590D01*
G01X3686680D02*
X3690750Y6719790D01*
X3694130Y6725080D01*
X3695490Y6731430D01*
X3694130Y6737780D01*
X3690750Y6743070D01*
X3684650Y6746250D01*
X3678550Y6745190D01*
X3672460Y6740960D01*
G01X3600500Y6800500D02*
X3700500D01*
Y6860500D01*
X3600500D01*
Y6800500D01*
G01X4367090Y1986810D02*
X4361250Y1990750D01*
X4354430Y1993370D01*
X4346640D01*
X4337880Y1989430D01*
X4331070Y1982870D01*
X4326200Y1975000D01*
X4322300Y1961870D01*
X4321330Y1950060D01*
X4323280Y1938250D01*
X4326200Y1930380D01*
X4332040Y1922500D01*
X4338850Y1917250D01*
X4345670Y1914630D01*
X4352490D01*
X4359300Y1917250D01*
X4365140Y1921190D01*
X4370010Y1926440D01*
G01X4403960Y1914630D02*
Y1993370D01*
G01X4444860D02*
Y1914630D01*
G01Y1954000D02*
X4403960D01*
G01X4478810Y1914630D02*
X4503150Y1993370D01*
X4527490Y1914630D01*
G01X4518730Y1942190D02*
X4487570D01*
G01X4562420Y1914630D02*
Y1993370D01*
X4586760D01*
X4594550Y1989430D01*
X4599420Y1984180D01*
X4601360Y1973680D01*
X4599420Y1963190D01*
X4593570Y1956630D01*
X4586760Y1952690D01*
X4562420D01*
G01X4586760D02*
X4601360Y1914630D01*
G01X4666470Y1954000D02*
X4685950D01*
Y1930380D01*
X4680100Y1922500D01*
X4673290Y1917250D01*
X4663550Y1914630D01*
X4653810Y1917250D01*
X4647000Y1922500D01*
X4641160Y1930380D01*
X4637260Y1939560D01*
X4635310Y1950060D01*
Y1959250D01*
X4637260Y1967120D01*
X4641160Y1976310D01*
X4647000Y1984180D01*
X4652840Y1989430D01*
X4660630Y1993370D01*
X4667450D01*
X4675230Y1990750D01*
X4681080Y1985500D01*
G01X4758840Y1914630D02*
X4719900D01*
Y1993370D01*
X4758840D01*
G01X4743260Y1955310D02*
X4719900D01*
G01X4877380Y1993370D02*
Y1914630D01*
X4916320D01*
G01X4995060D02*
X4956120D01*
Y1993370D01*
X4995060D01*
G01X4979480Y1955310D02*
X4956120D01*
G01X5032910Y1914630D02*
Y1993370D01*
X5052380D01*
X5060170Y1989430D01*
X5066010Y1984180D01*
X5070880Y1976310D01*
X5074780Y1967120D01*
X5075750Y1954000D01*
X5074780Y1940880D01*
X5070880Y1931690D01*
X5066010Y1923810D01*
X5060170Y1918570D01*
X5052380Y1914630D01*
X5032910D01*
G01X4028160Y2168750D02*
Y2123240D01*
X4030870Y2113710D01*
X4036290Y2107370D01*
X4043060Y2105250D01*
X4049830Y2107370D01*
X4055250Y2113710D01*
X4057960Y2123240D01*
Y2168750D01*
G01X4086070Y2158170D02*
X4090130Y2164520D01*
X4094880Y2167690D01*
X4100290Y2168750D01*
X4107070Y2166630D01*
X4111810Y2161340D01*
X4113160Y2154990D01*
X4112490Y2148640D01*
X4109780Y2143350D01*
X4096230Y2132770D01*
X4090130Y2125360D01*
X4086070Y2114770D01*
X4084720Y2105250D01*
X4113160D01*
G01X4436510Y2253250D02*
Y2316750D01*
X4453450D01*
X4458870Y2313570D01*
X4462250Y2309340D01*
X4463610Y2300870D01*
X4462250Y2292410D01*
X4458190Y2287120D01*
X4453450Y2283940D01*
X4436510D01*
G01X4453450D02*
X4463610Y2253250D01*
G01X4493070Y2306170D02*
X4497130Y2312520D01*
X4501880Y2315690D01*
X4507290Y2316750D01*
X4514070Y2314630D01*
X4518810Y2309340D01*
X4520160Y2302990D01*
X4519490Y2296640D01*
X4516780Y2291350D01*
X4503230Y2280770D01*
X4497130Y2273360D01*
X4493070Y2262770D01*
X4491720Y2253250D01*
X4520160D01*
G01X4430000Y2388000D02*
Y2338000D01*
X4530000D01*
Y2388000D01*
X4430000D01*
G01X4443630Y3059840D02*
X4522370D01*
Y3035500D01*
X4518430Y3027710D01*
X4513180Y3022840D01*
X4502680Y3020900D01*
X4492190Y3022840D01*
X4485630Y3028690D01*
X4481690Y3035500D01*
Y3059840D01*
G01Y3035500D02*
X4443630Y3020900D01*
G01X4476440Y2980130D02*
X4485630Y2973310D01*
X4490870Y2967470D01*
X4493500Y2959680D01*
X4490870Y2952870D01*
X4485630Y2948000D01*
X4477750Y2944100D01*
X4468560Y2943130D01*
X4460690Y2944100D01*
X4452810Y2948000D01*
X4446250Y2953840D01*
X4443630Y2960660D01*
X4446250Y2968450D01*
X4454130Y2975260D01*
X4465940Y2979160D01*
X4479060Y2980130D01*
X4496120Y2978180D01*
X4505310Y2975260D01*
X4514500Y2970390D01*
X4521060Y2963580D01*
X4522370Y2956760D01*
X4519750Y2949950D01*
X4513180Y2945080D01*
G01X4364460Y4436980D02*
X4367630Y4441040D01*
X4369750Y4445780D01*
Y4451200D01*
X4366570Y4457300D01*
X4361280Y4462040D01*
X4354930Y4465430D01*
X4344350Y4468140D01*
X4334820Y4468810D01*
X4325300Y4467460D01*
X4318950Y4465430D01*
X4312600Y4461360D01*
X4308370Y4456620D01*
X4306250Y4451880D01*
Y4447140D01*
X4308370Y4442400D01*
X4311540Y4438330D01*
X4315770Y4434950D01*
G01X4306250Y4396000D02*
X4369750D01*
X4357050Y4404130D01*
G01X4306250D02*
Y4387870D01*
G01X4369750Y4340120D02*
X4367630Y4345540D01*
X4362340Y4349600D01*
X4355990Y4352310D01*
X4347520Y4354340D01*
X4338000Y4355020D01*
X4328470Y4354340D01*
X4320010Y4352310D01*
X4313660Y4349600D01*
X4308370Y4345540D01*
X4306250Y4340120D01*
X4308370Y4334700D01*
X4313660Y4330640D01*
X4320010Y4327930D01*
X4328470Y4325900D01*
X4338000Y4325220D01*
X4347520Y4325900D01*
X4355990Y4327930D01*
X4362340Y4330640D01*
X4367630Y4334700D01*
X4369750Y4340120D01*
G01X4039250Y4595250D02*
X4102750D01*
Y4569510D01*
G01X4072060Y4578990D02*
Y4595250D01*
G01X4102750Y4540050D02*
X4039250D01*
Y4512950D01*
G01Y4470620D02*
X4102750D01*
X4090050Y4478750D01*
G01X4039250D02*
Y4462490D01*
G01X4225000Y4600000D02*
X4145000D01*
Y4440000D01*
X4225000D01*
Y4600000D01*
G01X4190000Y4726000D02*
Y4776000D01*
X4090000D01*
Y4726000D01*
X4190000D01*
G01X4374500Y4729000D02*
X4294500D01*
Y4569000D01*
X4374500D01*
Y4729000D01*
G01X4509500Y5529000D02*
X4009500D01*
Y5029000D01*
X4509500D01*
Y5529000D01*
G01X4353980Y5865040D02*
X4358040Y5861870D01*
X4362780Y5859750D01*
X4368200D01*
X4374300Y5862930D01*
X4379040Y5868220D01*
X4382430Y5874570D01*
X4385140Y5885150D01*
X4385810Y5894680D01*
X4384460Y5904200D01*
X4382430Y5910550D01*
X4378360Y5916900D01*
X4373620Y5921130D01*
X4368880Y5923250D01*
X4364140D01*
X4359400Y5921130D01*
X4355330Y5917960D01*
X4351950Y5913730D01*
G01X4313000Y5923250D02*
Y5859750D01*
X4321130Y5872450D01*
G01Y5923250D02*
X4304870D01*
G01X4269990Y5896790D02*
X4265250Y5889380D01*
X4261180Y5885150D01*
X4255770Y5883030D01*
X4251020Y5885150D01*
X4247640Y5889380D01*
X4244930Y5895730D01*
X4244250Y5903140D01*
X4244930Y5909490D01*
X4247640Y5915840D01*
X4251700Y5921130D01*
X4256440Y5923250D01*
X4261860Y5921130D01*
X4266600Y5914790D01*
X4269310Y5905260D01*
X4269990Y5894680D01*
X4268640Y5880920D01*
X4266600Y5873510D01*
X4263220Y5866100D01*
X4258470Y5860810D01*
X4253730Y5859750D01*
X4248990Y5861870D01*
X4245600Y5867160D01*
G01X4261000Y5838000D02*
Y5788000D01*
X4361000D01*
Y5838000D01*
X4261000D01*
G01X4021000Y6317750D02*
Y6067750D01*
X4341000D01*
Y6317750D01*
X4021000D01*
G01X4037130Y6386630D02*
Y6422060D01*
X4017660Y6465370D01*
G01X4056600D02*
X4037130Y6422060D01*
G01X4097370Y6452250D02*
X4103210Y6460120D01*
X4110030Y6464060D01*
X4117820Y6465370D01*
X4127550Y6462750D01*
X4134370Y6456180D01*
X4136320Y6448310D01*
X4135340Y6440430D01*
X4131450Y6433870D01*
X4111980Y6420750D01*
X4103210Y6411560D01*
X4097370Y6398440D01*
X4095420Y6386630D01*
X4136320D01*
G01X4516760Y1260630D02*
X4508970Y1261940D01*
X4502160Y1267190D01*
X4496310Y1275060D01*
X4492420Y1284250D01*
X4490470Y1294750D01*
Y1305250D01*
X4492420Y1315750D01*
X4496310Y1324940D01*
X4502160Y1332810D01*
X4508970Y1338060D01*
X4516760Y1339370D01*
X4524550Y1338060D01*
X4531360Y1332810D01*
X4537210Y1324940D01*
X4541100Y1315750D01*
X4543050Y1305250D01*
Y1294750D01*
X4541100Y1284250D01*
X4537210Y1275060D01*
X4531360Y1267190D01*
X4524550Y1261940D01*
X4516760Y1260630D01*
G01X4577000D02*
Y1339370D01*
X4614000D01*
G01X4600370Y1301310D02*
X4577000D01*
G01X4655740Y1260630D02*
Y1339370D01*
X4692740D01*
G01X4679110Y1301310D02*
X4655740D01*
G01X4514210Y2057630D02*
Y2136370D01*
X4533680D01*
X4541470Y2132430D01*
X4547310Y2127180D01*
X4552180Y2119310D01*
X4556080Y2110120D01*
X4557050Y2097000D01*
X4556080Y2083880D01*
X4552180Y2074690D01*
X4547310Y2066810D01*
X4541470Y2061570D01*
X4533680Y2057630D01*
X4514210D01*
G01X4614370D02*
Y2136370D01*
X4602690Y2120620D01*
G01Y2057630D02*
X4626050D01*
G01X5028750Y2213000D02*
G03I-158750J0D01*
G01X4758700Y2099800D02*
Y2326000D01*
G01X4623160Y2506630D02*
Y2585370D01*
X4647500D01*
X4655290Y2581430D01*
X4660160Y2576180D01*
X4662100Y2565680D01*
X4660160Y2555190D01*
X4654310Y2548630D01*
X4647500Y2544690D01*
X4623160D01*
G01X4647500D02*
X4662100Y2506630D01*
G01X4721370D02*
Y2585370D01*
X4709690Y2569620D01*
G01Y2506630D02*
X4733050D01*
G01X4832500Y2583500D02*
Y2498500D01*
X4987500D01*
Y2583500D01*
X4832500D01*
G01X4567500Y2926500D02*
X4652500D01*
Y3081500D01*
X4567500D01*
Y2926500D01*
G01X4786450Y3014250D02*
Y3077750D01*
X4804060Y3024830D01*
X4821670Y3077750D01*
Y3014250D01*
G01X4859940D02*
Y3077750D01*
X4851810Y3065050D01*
G01Y3014250D02*
X4868070D01*
G01X4793000Y2999000D02*
Y2899000D01*
X4853000D01*
Y2999000D01*
X4793000D01*
G01X5876000Y4167000D02*
Y4667000D01*
X4676000D01*
Y4167000D01*
X5876000D01*
G01X4910490Y4983250D02*
Y5046750D01*
X4883390D01*
G01X4855960Y5034050D02*
X4851900Y5041460D01*
X4846480Y5045690D01*
X4840380Y5046750D01*
X4834960Y5045690D01*
X4829540Y5040400D01*
X4826160Y5034050D01*
X4825480Y5027700D01*
X4826840Y5020290D01*
X4831580Y5015000D01*
X4836320Y5012880D01*
X4842410D01*
G01X4836320D02*
X4832250Y5009710D01*
X4828870Y5004420D01*
X4827510Y4998070D01*
X4828870Y4991720D01*
X4832250Y4986430D01*
X4838350Y4983250D01*
X4844450Y4984310D01*
X4850540Y4988540D01*
G01X4948500Y5064000D02*
Y5144000D01*
X4788500D01*
Y5064000D01*
X4948500D01*
G01X4748960Y5336980D02*
X4752130Y5341040D01*
X4754250Y5345780D01*
Y5351200D01*
X4751070Y5357300D01*
X4745780Y5362040D01*
X4739430Y5365430D01*
X4728850Y5368140D01*
X4719320Y5368810D01*
X4709800Y5367460D01*
X4703450Y5365430D01*
X4697100Y5361360D01*
X4692870Y5356620D01*
X4690750Y5351880D01*
Y5347140D01*
X4692870Y5342400D01*
X4696040Y5338330D01*
X4700270Y5334950D01*
G01X4690750Y5296000D02*
X4754250D01*
X4741550Y5304130D01*
G01X4690750D02*
Y5287870D01*
G01Y5231990D02*
X4754250D01*
X4708740Y5257050D01*
Y5223190D01*
G01X4794000Y5249000D02*
X4844000D01*
Y5349000D01*
X4794000D01*
Y5249000D01*
G01X4642230Y5936070D02*
X4645400Y5940130D01*
X4647520Y5944870D01*
Y5950290D01*
X4644340Y5956390D01*
X4639050Y5961130D01*
X4632700Y5964520D01*
X4622120Y5967230D01*
X4612590Y5967900D01*
X4603070Y5966550D01*
X4596720Y5964520D01*
X4590370Y5960450D01*
X4586140Y5955710D01*
X4584020Y5950970D01*
Y5946230D01*
X4586140Y5941490D01*
X4589310Y5937420D01*
X4593540Y5934040D01*
G01X4584020Y5895090D02*
X4647520D01*
X4634820Y5903220D01*
G01X4584020D02*
Y5886960D01*
G01X4636940Y5852080D02*
X4643290Y5848020D01*
X4646460Y5843270D01*
X4647520Y5837860D01*
X4645400Y5831080D01*
X4640110Y5826340D01*
X4633760Y5824990D01*
X4627410Y5825660D01*
X4622120Y5828370D01*
X4611540Y5841920D01*
X4604130Y5848020D01*
X4593540Y5852080D01*
X4584020Y5853430D01*
Y5824990D01*
G01X4519000Y5811500D02*
X4569000D01*
Y5911500D01*
X4519000D01*
Y5811500D01*
G01X5317630Y1889840D02*
X5396370D01*
Y1865500D01*
X5392430Y1857710D01*
X5387180Y1852840D01*
X5376680Y1850900D01*
X5366190Y1852840D01*
X5359630Y1858690D01*
X5355690Y1865500D01*
Y1889840D01*
G01Y1865500D02*
X5317630Y1850900D01*
G01X5333380Y1813050D02*
X5324190Y1807210D01*
X5318940Y1799420D01*
X5317630Y1790660D01*
X5318940Y1782870D01*
X5325500Y1775080D01*
X5333380Y1770210D01*
X5341250Y1769240D01*
X5350440Y1771180D01*
X5357000Y1778000D01*
X5359630Y1784810D01*
Y1793580D01*
G01Y1784810D02*
X5363560Y1778970D01*
X5370120Y1774100D01*
X5378000Y1772160D01*
X5385870Y1774100D01*
X5392430Y1778970D01*
X5396370Y1787740D01*
X5395060Y1796500D01*
X5389810Y1805260D01*
G01X5272000Y2010000D02*
X5432000D01*
Y2330000D01*
X5272000D01*
Y2010000D01*
G01X5087570Y2884250D02*
Y2947750D01*
X5104510D01*
X5109930Y2944570D01*
X5113310Y2940340D01*
X5114670Y2931870D01*
X5113310Y2923410D01*
X5109250Y2918120D01*
X5104510Y2914940D01*
X5087570D01*
G01X5104510D02*
X5114670Y2884250D01*
G01X5157000D02*
Y2947750D01*
X5148870Y2935050D01*
G01Y2884250D02*
X5165130D01*
G01X5197980Y2893770D02*
X5202040Y2888480D01*
X5206780Y2885310D01*
X5212880Y2884250D01*
X5218980Y2886370D01*
X5223720Y2890600D01*
X5227100Y2898010D01*
X5227780Y2906470D01*
X5226430Y2914940D01*
X5223040Y2920230D01*
X5218300Y2924470D01*
X5213560Y2925520D01*
X5208820Y2924470D01*
X5202720Y2920230D01*
X5204750Y2947750D01*
X5223040D01*
G01X5280000Y2941500D02*
Y2891500D01*
X5380000D01*
Y2941500D01*
X5280000D01*
G01X5292210Y3095000D02*
G03I-14210J0D01*
G01X5455000Y3232000D02*
X5305000D01*
Y3082000D01*
X5455000D01*
Y3232000D01*
G01X5023160Y2728250D02*
Y2791750D01*
X5036710D01*
X5042120Y2788570D01*
X5046190Y2784340D01*
X5049580Y2777990D01*
X5052280Y2770580D01*
X5052960Y2760000D01*
X5052280Y2749420D01*
X5049580Y2742010D01*
X5046190Y2735660D01*
X5042120Y2731420D01*
X5036710Y2728250D01*
X5023160D01*
G01X5081070Y2781170D02*
X5085130Y2787520D01*
X5089880Y2790690D01*
X5095290Y2791750D01*
X5102070Y2789630D01*
X5106810Y2784340D01*
X5108160Y2777990D01*
X5107490Y2771640D01*
X5104780Y2766350D01*
X5091230Y2755770D01*
X5085130Y2748360D01*
X5081070Y2737770D01*
X5079720Y2728250D01*
X5108160D01*
G01X4989000Y2727000D02*
Y2787000D01*
X4889000D01*
Y2727000D01*
X4989000D01*
G01X4890000Y2693000D02*
X4923000D01*
G01X4906000Y2710000D02*
Y2675000D01*
G01X5098840Y3257370D02*
Y3200940D01*
X5102730Y3189130D01*
X5110520Y3181250D01*
X5120260Y3178630D01*
X5130000Y3181250D01*
X5137790Y3189130D01*
X5141680Y3200940D01*
Y3257370D01*
G01X5199000Y3178630D02*
Y3257370D01*
X5187320Y3241620D01*
G01Y3178630D02*
X5210680D01*
G01X5277740D02*
Y3257370D01*
X5266060Y3241620D01*
G01Y3178630D02*
X5289420D01*
G01X5037680Y3459810D02*
X5031840Y3463750D01*
X5025020Y3466370D01*
X5017230D01*
X5008470Y3462430D01*
X5001660Y3455870D01*
X4996790Y3448000D01*
X4992890Y3434870D01*
X4991920Y3423060D01*
X4993870Y3411250D01*
X4996790Y3403380D01*
X5002630Y3395500D01*
X5009440Y3390250D01*
X5016260Y3387630D01*
X5023080D01*
X5029890Y3390250D01*
X5035730Y3394190D01*
X5040600Y3399440D01*
G01X5076500Y3453250D02*
X5082340Y3461120D01*
X5089160Y3465060D01*
X5096950Y3466370D01*
X5106680Y3463750D01*
X5113500Y3457180D01*
X5115450Y3449310D01*
X5114470Y3441430D01*
X5110580Y3434870D01*
X5091110Y3421750D01*
X5082340Y3412560D01*
X5076500Y3399440D01*
X5074550Y3387630D01*
X5115450D01*
G01X5155240Y3453250D02*
X5161080Y3461120D01*
X5167900Y3465060D01*
X5175690Y3466370D01*
X5185420Y3463750D01*
X5192240Y3457180D01*
X5194190Y3449310D01*
X5193210Y3441430D01*
X5189320Y3434870D01*
X5169850Y3421750D01*
X5161080Y3412560D01*
X5155240Y3399440D01*
X5153290Y3387630D01*
X5194190D01*
G01X5280000Y3489500D02*
Y3364500D01*
X5480000D01*
Y3489500D01*
X5280000D01*
G01X4899070Y4031380D02*
X4903940Y4023500D01*
X4909780Y4018250D01*
X4916590Y4015630D01*
X4924380Y4018250D01*
X4930220Y4023500D01*
X4936070Y4031380D01*
X4938010Y4041880D01*
Y4094370D01*
G01X4997280D02*
Y4015630D01*
G01X4974890Y4094370D02*
X5019670D01*
G01X5051680Y4015630D02*
X5076020Y4094370D01*
X5100360Y4015630D01*
G01X5091600Y4043190D02*
X5060440D01*
G01X5160600Y4055000D02*
X5180080D01*
Y4031380D01*
X5174230Y4023500D01*
X5167420Y4018250D01*
X5157680Y4015630D01*
X5147940Y4018250D01*
X5141130Y4023500D01*
X5135290Y4031380D01*
X5131390Y4040560D01*
X5129440Y4051060D01*
Y4060250D01*
X5131390Y4068120D01*
X5135290Y4077310D01*
X5141130Y4085180D01*
X5146970Y4090430D01*
X5154760Y4094370D01*
X5161580D01*
X5169360Y4091750D01*
X5175210Y4086500D01*
G01X5333660Y4087810D02*
X5327820Y4091750D01*
X5321000Y4094370D01*
X5313210D01*
X5304450Y4090430D01*
X5297640Y4083870D01*
X5292770Y4076000D01*
X5288870Y4062870D01*
X5287900Y4051060D01*
X5289850Y4039250D01*
X5292770Y4031380D01*
X5298610Y4023500D01*
X5305420Y4018250D01*
X5312240Y4015630D01*
X5319060D01*
X5325870Y4018250D01*
X5331710Y4022190D01*
X5336580Y4027440D01*
G01X5390980Y4015630D02*
X5383190Y4016940D01*
X5376380Y4022190D01*
X5370530Y4030060D01*
X5366640Y4039250D01*
X5364690Y4049750D01*
Y4060250D01*
X5366640Y4070750D01*
X5370530Y4079940D01*
X5376380Y4087810D01*
X5383190Y4093060D01*
X5390980Y4094370D01*
X5398770Y4093060D01*
X5405580Y4087810D01*
X5411430Y4079940D01*
X5415320Y4070750D01*
X5417270Y4060250D01*
Y4049750D01*
X5415320Y4039250D01*
X5411430Y4030060D01*
X5405580Y4022190D01*
X5398770Y4016940D01*
X5390980Y4015630D01*
G01X5447330D02*
Y4094370D01*
X5492110Y4015630D01*
Y4094370D01*
G01X5526070Y4015630D02*
Y4094370D01*
X5570850Y4015630D01*
Y4094370D01*
G01X5218210Y4770870D02*
Y4714440D01*
X5222100Y4702630D01*
X5229890Y4694750D01*
X5239630Y4692130D01*
X5249370Y4694750D01*
X5257160Y4702630D01*
X5261050Y4714440D01*
Y4770870D01*
G01X5318370Y4692130D02*
X5325190Y4693440D01*
X5332970Y4697380D01*
X5337840Y4703940D01*
X5339790Y4713130D01*
X5337840Y4722310D01*
X5332000Y4730190D01*
X5323240Y4734130D01*
X5313500D01*
X5307660Y4736750D01*
X5302790Y4743310D01*
X5300840Y4752500D01*
X5303770Y4761680D01*
X5310580Y4768250D01*
X5318370Y4770870D01*
X5326160Y4768250D01*
X5332970Y4761680D01*
X5335900Y4752500D01*
X5333950Y4743310D01*
X5329080Y4736750D01*
X5323240Y4734130D01*
X5313500D01*
X5304740Y4730190D01*
X5298900Y4722310D01*
X5296950Y4713130D01*
X5298900Y4703940D01*
X5303770Y4697380D01*
X5311550Y4693440D01*
X5318370Y4692130D01*
G01X5178040Y5022020D02*
X5174870Y5017960D01*
X5172750Y5013220D01*
Y5007800D01*
X5175930Y5001700D01*
X5181220Y4996960D01*
X5187570Y4993570D01*
X5198150Y4990860D01*
X5207680Y4990190D01*
X5217200Y4991540D01*
X5223550Y4993570D01*
X5229900Y4997640D01*
X5234130Y5002380D01*
X5236250Y5007120D01*
Y5011860D01*
X5234130Y5016600D01*
X5230960Y5020670D01*
X5226730Y5024050D01*
G01X5236250Y5063000D02*
X5172750D01*
X5185450Y5054870D01*
G01X5236250D02*
Y5071130D01*
G01X5226730Y5103980D02*
X5232020Y5108040D01*
X5235190Y5112780D01*
X5236250Y5118880D01*
X5234130Y5124980D01*
X5229900Y5129720D01*
X5222490Y5133100D01*
X5214030Y5133780D01*
X5205560Y5132430D01*
X5200270Y5129040D01*
X5196030Y5124300D01*
X5194980Y5119560D01*
X5196030Y5114820D01*
X5200270Y5108720D01*
X5172750Y5110750D01*
Y5129040D01*
G01X5147000Y5109000D02*
X5097000D01*
Y5009000D01*
X5147000D01*
Y5109000D01*
G01X5041310Y5779820D02*
X5045250Y5785660D01*
X5047870Y5792480D01*
Y5800270D01*
X5043930Y5809030D01*
X5037370Y5815840D01*
X5029500Y5820710D01*
X5016370Y5824610D01*
X5004560Y5825580D01*
X4992750Y5823630D01*
X4984880Y5820710D01*
X4977000Y5814870D01*
X4971750Y5808060D01*
X4969130Y5801240D01*
Y5794420D01*
X4971750Y5787610D01*
X4975690Y5781770D01*
X4980940Y5776900D01*
G01X4969130Y5722500D02*
X5047870D01*
X5032120Y5734180D01*
G01X4969130D02*
Y5710820D01*
G01X4984880Y5665180D02*
X4975690Y5659340D01*
X4970440Y5651550D01*
X4969130Y5642790D01*
X4970440Y5635000D01*
X4977000Y5627210D01*
X4984880Y5622340D01*
X4992750Y5621370D01*
X5001940Y5623310D01*
X5008500Y5630130D01*
X5011130Y5636940D01*
Y5645710D01*
G01Y5636940D02*
X5015060Y5631100D01*
X5021620Y5626230D01*
X5029500Y5624290D01*
X5037370Y5626230D01*
X5043930Y5631100D01*
X5047870Y5639870D01*
X5046560Y5648630D01*
X5041310Y5657390D01*
G01X4944500Y5335500D02*
X5069500D01*
Y5535500D01*
X4944500D01*
Y5335500D01*
G01X5226540Y5526520D02*
X5223370Y5522460D01*
X5221250Y5517720D01*
Y5512300D01*
X5224430Y5506200D01*
X5229720Y5501460D01*
X5236070Y5498070D01*
X5246650Y5495360D01*
X5256180Y5494690D01*
X5265700Y5496040D01*
X5272050Y5498070D01*
X5278400Y5502140D01*
X5282630Y5506880D01*
X5284750Y5511620D01*
Y5516360D01*
X5282630Y5521100D01*
X5279460Y5525170D01*
X5275230Y5528550D01*
G01X5284750Y5567500D02*
X5221250D01*
X5233950Y5559370D01*
G01X5284750D02*
Y5575630D01*
G01Y5623380D02*
X5283690Y5628120D01*
X5280520Y5633540D01*
X5275230Y5636930D01*
X5267820Y5638280D01*
X5260410Y5636930D01*
X5254060Y5632860D01*
X5250880Y5626770D01*
Y5619990D01*
X5248770Y5615930D01*
X5243480Y5612540D01*
X5236070Y5611190D01*
X5228660Y5613220D01*
X5223370Y5617960D01*
X5221250Y5623380D01*
X5223370Y5628800D01*
X5228660Y5633540D01*
X5236070Y5635570D01*
X5243480Y5634220D01*
X5248770Y5630830D01*
X5250880Y5626770D01*
Y5619990D01*
X5254060Y5613900D01*
X5260410Y5609830D01*
X5267820Y5608480D01*
X5275230Y5609830D01*
X5280520Y5613220D01*
X5283690Y5618640D01*
X5284750Y5623380D01*
G01X5281500Y5438500D02*
X5231500D01*
Y5338500D01*
X5281500D01*
Y5438500D01*
G01X6181450Y7798500D02*
G03I-600000J0D01*
G01X5606510Y2122250D02*
Y2185750D01*
X5623450D01*
X5628870Y2182570D01*
X5632250Y2178340D01*
X5633610Y2169870D01*
X5632250Y2161410D01*
X5628190Y2156120D01*
X5623450Y2152940D01*
X5606510D01*
G01X5623450D02*
X5633610Y2122250D01*
G01X5675940D02*
X5680680Y2123310D01*
X5686100Y2126480D01*
X5689490Y2131770D01*
X5690840Y2139180D01*
X5689490Y2146590D01*
X5685420Y2152940D01*
X5679330Y2156120D01*
X5672550D01*
X5668490Y2158230D01*
X5665100Y2163520D01*
X5663750Y2170930D01*
X5665780Y2178340D01*
X5670520Y2183630D01*
X5675940Y2185750D01*
X5681360Y2183630D01*
X5686100Y2178340D01*
X5688130Y2170930D01*
X5686780Y2163520D01*
X5683390Y2158230D01*
X5679330Y2156120D01*
X5672550D01*
X5666460Y2152940D01*
X5662390Y2146590D01*
X5661040Y2139180D01*
X5662390Y2131770D01*
X5665780Y2126480D01*
X5671200Y2123310D01*
X5675940Y2122250D01*
G01X5704000Y2054000D02*
Y2104000D01*
X5604000D01*
Y2054000D01*
X5704000D01*
G01X5611510Y1841250D02*
Y1904750D01*
X5628450D01*
X5633870Y1901570D01*
X5637250Y1897340D01*
X5638610Y1888870D01*
X5637250Y1880410D01*
X5633190Y1875120D01*
X5628450Y1871940D01*
X5611510D01*
G01X5628450D02*
X5638610Y1841250D01*
G01X5679590D02*
X5680940Y1855010D01*
X5682970Y1866650D01*
X5685680Y1877230D01*
X5689070Y1888870D01*
X5694490Y1904750D01*
X5667390D01*
G01X5604000Y1976000D02*
Y1926000D01*
X5704000D01*
Y1976000D01*
X5604000D01*
G01X5384570Y2566250D02*
Y2629750D01*
X5401510D01*
X5406930Y2626570D01*
X5410310Y2622340D01*
X5411670Y2613870D01*
X5410310Y2605410D01*
X5406250Y2600120D01*
X5401510Y2596940D01*
X5384570D01*
G01X5401510D02*
X5411670Y2566250D01*
G01X5454000D02*
Y2629750D01*
X5445870Y2617050D01*
G01Y2566250D02*
X5462130D01*
G01X5497010Y2592710D02*
X5501750Y2600120D01*
X5505820Y2604350D01*
X5511230Y2606470D01*
X5515980Y2604350D01*
X5519360Y2600120D01*
X5522070Y2593770D01*
X5522750Y2586360D01*
X5522070Y2580010D01*
X5519360Y2573660D01*
X5515300Y2568370D01*
X5510560Y2566250D01*
X5505140Y2568370D01*
X5500400Y2574710D01*
X5497690Y2584240D01*
X5497010Y2594820D01*
X5498360Y2608580D01*
X5500400Y2615990D01*
X5503780Y2623400D01*
X5508530Y2628690D01*
X5513270Y2629750D01*
X5518010Y2627630D01*
X5521400Y2622340D01*
G01X5575000Y2622000D02*
Y2572000D01*
X5675000D01*
Y2622000D01*
X5575000D01*
G01X5414020Y2787460D02*
X5409960Y2790630D01*
X5405220Y2792750D01*
X5399800D01*
X5393700Y2789570D01*
X5388960Y2784280D01*
X5385570Y2777930D01*
X5382860Y2767350D01*
X5382190Y2757820D01*
X5383540Y2748300D01*
X5385570Y2741950D01*
X5389640Y2735600D01*
X5394380Y2731370D01*
X5399120Y2729250D01*
X5403860D01*
X5408600Y2731370D01*
X5412670Y2734540D01*
X5416050Y2738770D01*
G01X5442130Y2782170D02*
X5446190Y2788520D01*
X5450940Y2791690D01*
X5456350Y2792750D01*
X5463130Y2790630D01*
X5467870Y2785340D01*
X5469220Y2778990D01*
X5468550Y2772640D01*
X5465840Y2767350D01*
X5452290Y2756770D01*
X5446190Y2749360D01*
X5442130Y2738770D01*
X5440780Y2729250D01*
X5469220D01*
G01X5510880D02*
Y2792750D01*
X5502750Y2780050D01*
G01Y2729250D02*
X5519010D01*
G01X5730000Y2717000D02*
Y2797000D01*
X5570000D01*
Y2717000D01*
X5730000D01*
G01X5594570Y2965250D02*
Y3028750D01*
X5611510D01*
X5616930Y3025570D01*
X5620310Y3021340D01*
X5621670Y3012870D01*
X5620310Y3004410D01*
X5616250Y2999120D01*
X5611510Y2995940D01*
X5594570D01*
G01X5611510D02*
X5621670Y2965250D01*
G01X5664000D02*
Y3028750D01*
X5655870Y3016050D01*
G01Y2965250D02*
X5672130D01*
G01X5728010D02*
Y3028750D01*
X5702950Y2983240D01*
X5736810D01*
G01X5745000Y2868000D02*
Y2948000D01*
X5585000D01*
Y2868000D01*
X5745000D01*
G01X5708190Y3568680D02*
X5704250Y3562840D01*
X5701630Y3556020D01*
Y3548230D01*
X5705570Y3539470D01*
X5712130Y3532660D01*
X5720000Y3527790D01*
X5733130Y3523890D01*
X5744940Y3522920D01*
X5756750Y3524870D01*
X5764620Y3527790D01*
X5772500Y3533630D01*
X5777750Y3540440D01*
X5780370Y3547260D01*
Y3554080D01*
X5777750Y3560890D01*
X5773810Y3566730D01*
X5768560Y3571600D01*
G01X5780370Y3626000D02*
X5701630D01*
X5717380Y3614320D01*
G01X5780370D02*
Y3637680D01*
G01X5771190Y3688190D02*
X5777750Y3695000D01*
X5780370Y3702790D01*
X5777750Y3710580D01*
X5769870Y3717400D01*
X5758060Y3722270D01*
X5746250Y3724210D01*
X5731810D01*
X5720000Y3722270D01*
X5709500Y3717400D01*
X5704250Y3711560D01*
X5701630Y3704740D01*
X5704250Y3696950D01*
X5709500Y3691110D01*
X5717380Y3687210D01*
X5727880Y3685270D01*
X5737060Y3687210D01*
X5746250Y3692080D01*
X5751500Y3697920D01*
X5752810Y3704740D01*
X5750190Y3712530D01*
X5743630Y3718370D01*
X5731810Y3724210D01*
G01X5803500Y3433000D02*
X5678500D01*
Y3233000D01*
X5803500D01*
Y3433000D01*
G01X5398160Y3833370D02*
Y3754630D01*
X5437100D01*
G01X5508050D02*
Y3833370D01*
X5472030Y3776940D01*
X5520710D01*
G01X5560000Y3557000D02*
Y3717000D01*
X5360000D01*
Y3557000D01*
X5560000D01*
G01X5537250Y5222070D02*
X5473750D01*
Y5239010D01*
X5476930Y5244430D01*
X5481160Y5247810D01*
X5489630Y5249170D01*
X5498090Y5247810D01*
X5503380Y5243750D01*
X5506560Y5239010D01*
Y5222070D01*
G01Y5239010D02*
X5537250Y5249170D01*
G01Y5291500D02*
X5473750D01*
X5486450Y5283370D01*
G01X5537250D02*
Y5299630D01*
G01X5484330Y5334510D02*
X5477980Y5338570D01*
X5474810Y5343320D01*
X5473750Y5348730D01*
X5475870Y5355510D01*
X5481160Y5360250D01*
X5487510Y5361600D01*
X5493860Y5360930D01*
X5499150Y5358220D01*
X5509730Y5344670D01*
X5517140Y5338570D01*
X5527730Y5334510D01*
X5537250Y5333160D01*
Y5361600D01*
G01X5610750Y5363930D02*
X5674250D01*
Y5346990D01*
X5671070Y5341570D01*
X5666840Y5338190D01*
X5658370Y5336830D01*
X5649910Y5338190D01*
X5644620Y5342250D01*
X5641440Y5346990D01*
Y5363930D01*
G01Y5346990D02*
X5610750Y5336830D01*
G01Y5294500D02*
X5674250D01*
X5661550Y5302630D01*
G01X5610750D02*
Y5286370D01*
G01X5623450Y5253520D02*
X5616040Y5249460D01*
X5611810Y5244040D01*
X5610750Y5237940D01*
X5611810Y5232520D01*
X5617100Y5227100D01*
X5623450Y5223720D01*
X5629800Y5223040D01*
X5637210Y5224400D01*
X5642500Y5229140D01*
X5644620Y5233880D01*
Y5239970D01*
G01Y5233880D02*
X5647790Y5229810D01*
X5653080Y5226430D01*
X5659430Y5225070D01*
X5665780Y5226430D01*
X5671070Y5229810D01*
X5674250Y5235910D01*
X5673190Y5242010D01*
X5668960Y5248100D01*
G01X5532000Y5533500D02*
X5482000D01*
Y5433500D01*
X5532000D01*
Y5533500D01*
G01X5618000Y5436000D02*
X5668000D01*
Y5536000D01*
X5618000D01*
Y5436000D01*
G01X5590250Y6687430D02*
X5653750D01*
Y6670490D01*
X5650570Y6665070D01*
X5646340Y6661690D01*
X5637870Y6660330D01*
X5629410Y6661690D01*
X5624120Y6665750D01*
X5620940Y6670490D01*
Y6687430D01*
G01Y6670490D02*
X5590250Y6660330D01*
G01Y6618000D02*
X5653750D01*
X5641050Y6626130D01*
G01X5590250D02*
Y6609870D01*
G01Y6562120D02*
X5653750D01*
X5641050Y6570250D01*
G01X5590250D02*
Y6553990D01*
G01X5558000Y6670000D02*
X5508000D01*
Y6570000D01*
X5558000D01*
Y6670000D01*
G01X5430250Y6890050D02*
X5493750D01*
X5440830Y6872440D01*
X5493750Y6854830D01*
X5430250D01*
G01X5483170Y6829430D02*
X5489520Y6825370D01*
X5492690Y6820620D01*
X5493750Y6815210D01*
X5491630Y6808430D01*
X5486340Y6803690D01*
X5479990Y6802340D01*
X5473640Y6803010D01*
X5468350Y6805720D01*
X5457770Y6819270D01*
X5450360Y6825370D01*
X5439770Y6829430D01*
X5430250Y6830780D01*
Y6802340D01*
G01X5522000Y6895500D02*
Y6795500D01*
X5582000D01*
Y6895500D01*
X5522000D01*
G01X5864000Y2224000D02*
Y1974000D01*
X6264000D01*
Y2224000D01*
X5864000D01*
G01X6011210Y2342370D02*
Y2285940D01*
X6015100Y2274130D01*
X6022890Y2266250D01*
X6032630Y2263630D01*
X6042370Y2266250D01*
X6050160Y2274130D01*
X6054050Y2285940D01*
Y2342370D01*
G01X6123050Y2263630D02*
Y2342370D01*
X6087030Y2285940D01*
X6135710D01*
G01X5883190Y3563680D02*
X5879250Y3557840D01*
X5876630Y3551020D01*
Y3543230D01*
X5880570Y3534470D01*
X5887130Y3527660D01*
X5895000Y3522790D01*
X5908130Y3518890D01*
X5919940Y3517920D01*
X5931750Y3519870D01*
X5939620Y3522790D01*
X5947500Y3528630D01*
X5952750Y3535440D01*
X5955370Y3542260D01*
Y3549080D01*
X5952750Y3555890D01*
X5948810Y3561730D01*
X5943560Y3566600D01*
G01X5889750Y3602500D02*
X5881880Y3608340D01*
X5877940Y3615160D01*
X5876630Y3622950D01*
X5879250Y3632680D01*
X5885820Y3639500D01*
X5893690Y3641450D01*
X5901570Y3640470D01*
X5908130Y3636580D01*
X5921250Y3617110D01*
X5930440Y3608340D01*
X5943560Y3602500D01*
X5955370Y3600550D01*
Y3641450D01*
G01X5876630Y3699740D02*
X5879250Y3691950D01*
X5885820Y3686110D01*
X5893690Y3682210D01*
X5904190Y3679290D01*
X5916000Y3678320D01*
X5927810Y3679290D01*
X5938310Y3682210D01*
X5946190Y3686110D01*
X5952750Y3691950D01*
X5955370Y3699740D01*
X5952750Y3707530D01*
X5946190Y3713370D01*
X5938310Y3717270D01*
X5927810Y3720190D01*
X5916000Y3721160D01*
X5904190Y3720190D01*
X5893690Y3717270D01*
X5885820Y3713370D01*
X5879250Y3707530D01*
X5876630Y3699740D01*
G01X5983500Y3433000D02*
X5858500D01*
Y3233000D01*
X5983500D01*
Y3433000D01*
G01X6152710Y5357370D02*
Y5300940D01*
X6156600Y5289130D01*
X6164390Y5281250D01*
X6174130Y5278630D01*
X6183870Y5281250D01*
X6191660Y5289130D01*
X6195550Y5300940D01*
Y5357370D01*
G01X6236320Y5287810D02*
X6243130Y5281250D01*
X6250920Y5278630D01*
X6258710Y5281250D01*
X6265530Y5289130D01*
X6270400Y5300940D01*
X6272340Y5312750D01*
Y5327190D01*
X6270400Y5339000D01*
X6265530Y5349500D01*
X6259690Y5354750D01*
X6252870Y5357370D01*
X6245080Y5354750D01*
X6239240Y5349500D01*
X6235340Y5341620D01*
X6233400Y5331120D01*
X6235340Y5321940D01*
X6240210Y5312750D01*
X6246050Y5307500D01*
X6252870Y5306190D01*
X6260660Y5308810D01*
X6266500Y5315370D01*
X6272340Y5327190D01*
G01X5908000Y6063500D02*
Y5413500D01*
X6528000D01*
Y6063500D01*
X5908000D01*
G01X5869570Y6139630D02*
Y6218370D01*
X5893910D01*
X5901700Y6214430D01*
X5906570Y6209180D01*
X5908510Y6198680D01*
X5906570Y6188190D01*
X5900720Y6181630D01*
X5893910Y6177690D01*
X5869570D01*
G01X5893910D02*
X5908510Y6139630D01*
G01X5987250D02*
X5948310D01*
Y6218370D01*
X5987250D01*
G01X5971670Y6180310D02*
X5948310D01*
G01X6026070Y6150130D02*
X6033860Y6143570D01*
X6042630Y6139630D01*
X6050410D01*
X6058200Y6143570D01*
X6064050Y6150130D01*
X6066970Y6159320D01*
X6065020Y6168500D01*
X6060150Y6176370D01*
X6051390Y6181630D01*
X6039700Y6184250D01*
X6032890Y6189500D01*
X6029970Y6198680D01*
X6031920Y6207870D01*
X6036780Y6214430D01*
X6043600Y6218370D01*
X6050410D01*
X6057230Y6215750D01*
X6063070Y6209180D01*
G01X6144730Y6139630D02*
X6105790D01*
Y6218370D01*
X6144730D01*
G01X6129150Y6180310D02*
X6105790D01*
G01X6204000Y6218370D02*
Y6139630D01*
G01X6181610Y6218370D02*
X6226390D01*
G01X6369270Y6181630D02*
X6373160Y6185560D01*
X6376080Y6192120D01*
X6378030Y6201310D01*
X6376080Y6209180D01*
X6372190Y6214430D01*
X6365370Y6218370D01*
X6339090D01*
Y6139630D01*
X6371220D01*
X6378030Y6144880D01*
X6381930Y6152750D01*
X6383870Y6161940D01*
X6381930Y6171120D01*
X6376080Y6179000D01*
X6369270Y6181630D01*
X6339090D01*
G01X6440220Y6218370D02*
Y6139630D01*
G01X6417830Y6218370D02*
X6462610D01*
G01X6496570Y6139630D02*
Y6218370D01*
X6541350Y6139630D01*
Y6218370D01*
G01X5819160Y6953250D02*
Y7016750D01*
X5832710D01*
X5838120Y7013570D01*
X5842190Y7009340D01*
X5845580Y7002990D01*
X5848280Y6995580D01*
X5848960Y6985000D01*
X5848280Y6974420D01*
X5845580Y6967010D01*
X5842190Y6960660D01*
X5838120Y6956420D01*
X5832710Y6953250D01*
X5819160D01*
G01X5875040Y6965950D02*
X5879100Y6958540D01*
X5884520Y6954310D01*
X5890620Y6953250D01*
X5896040Y6954310D01*
X5901460Y6959600D01*
X5904840Y6965950D01*
X5905520Y6972300D01*
X5904160Y6979710D01*
X5899420Y6985000D01*
X5894680Y6987120D01*
X5888590D01*
G01X5894680D02*
X5898750Y6990290D01*
X5902130Y6995580D01*
X5903490Y7001930D01*
X5902130Y7008280D01*
X5898750Y7013570D01*
X5892650Y7016750D01*
X5886550Y7015690D01*
X5880460Y7011460D01*
G01X5809500Y6908000D02*
Y6848000D01*
X5909500D01*
Y6908000D01*
X5809500D01*
G01X5810500Y6814000D02*
X5843500D01*
G01X5826500Y6831000D02*
Y6796000D01*
G01X6097450Y8104500D02*
G02Y7492500I-37142J-306000D01*
G01X6524540Y2107960D02*
X6521370Y2103900D01*
X6519250Y2099160D01*
Y2093740D01*
X6522430Y2087640D01*
X6527720Y2082900D01*
X6534070Y2079510D01*
X6544650Y2076800D01*
X6554180Y2076130D01*
X6563700Y2077480D01*
X6570050Y2079510D01*
X6576400Y2083580D01*
X6580630Y2088320D01*
X6582750Y2093060D01*
Y2097800D01*
X6580630Y2102540D01*
X6577460Y2106610D01*
X6573230Y2109990D01*
G01X6570050Y2134040D02*
X6577460Y2138100D01*
X6581690Y2143520D01*
X6582750Y2149620D01*
X6581690Y2155040D01*
X6576400Y2160460D01*
X6570050Y2163840D01*
X6563700Y2164520D01*
X6556290Y2163160D01*
X6551000Y2158420D01*
X6548880Y2153680D01*
Y2147590D01*
G01Y2153680D02*
X6545710Y2157750D01*
X6540420Y2161130D01*
X6534070Y2162490D01*
X6527720Y2161130D01*
X6522430Y2157750D01*
X6519250Y2151650D01*
X6520310Y2145550D01*
X6524540Y2139460D01*
G01X6499000Y2169000D02*
X6449000D01*
Y2069000D01*
X6499000D01*
Y2169000D01*
G01X6584000Y2292000D02*
X6664000D01*
Y2452000D01*
X6584000D01*
Y2292000D01*
G01X6338510Y3476250D02*
Y3539750D01*
X6355450D01*
X6360870Y3536570D01*
X6364250Y3532340D01*
X6365610Y3523870D01*
X6364250Y3515410D01*
X6360190Y3510120D01*
X6355450Y3506940D01*
X6338510D01*
G01X6355450D02*
X6365610Y3476250D01*
G01X6393040Y3485770D02*
X6397100Y3480480D01*
X6401840Y3477310D01*
X6407940Y3476250D01*
X6414040Y3478370D01*
X6418780Y3482600D01*
X6422160Y3490010D01*
X6422840Y3498470D01*
X6421490Y3506940D01*
X6418100Y3512230D01*
X6413360Y3516470D01*
X6408620Y3517520D01*
X6403880Y3516470D01*
X6397780Y3512230D01*
X6399810Y3539750D01*
X6418100D01*
G01X6327500Y3293500D02*
Y3243500D01*
X6427500D01*
Y3293500D01*
X6327500D01*
G01X6343510Y3163250D02*
Y3226750D01*
X6360450D01*
X6365870Y3223570D01*
X6369250Y3219340D01*
X6370610Y3210870D01*
X6369250Y3202410D01*
X6365190Y3197120D01*
X6360450Y3193940D01*
X6343510D01*
G01X6360450D02*
X6370610Y3163250D01*
G01X6421070D02*
Y3226750D01*
X6396010Y3181240D01*
X6429870D01*
G01X6327500Y3463000D02*
Y3413000D01*
X6427500D01*
Y3463000D01*
X6327500D01*
G01X6445130Y7751710D02*
X6501560D01*
X6513370Y7755600D01*
X6521250Y7763390D01*
X6523870Y7773130D01*
X6521250Y7782870D01*
X6513370Y7790660D01*
X6501560Y7794550D01*
X6445130D01*
G01X6523870Y7849920D02*
X6506810Y7851870D01*
X6492380Y7854790D01*
X6479250Y7858690D01*
X6464820Y7863550D01*
X6445130Y7871340D01*
Y7832400D01*
G01X6743460Y2383040D02*
X6746630Y2387100D01*
X6748750Y2391840D01*
Y2397260D01*
X6745570Y2403360D01*
X6740280Y2408100D01*
X6733930Y2411490D01*
X6723350Y2414200D01*
X6713820Y2414870D01*
X6704300Y2413520D01*
X6697950Y2411490D01*
X6691600Y2407420D01*
X6687370Y2402680D01*
X6685250Y2397940D01*
Y2393200D01*
X6687370Y2388460D01*
X6690540Y2384390D01*
X6694770Y2381010D01*
G01X6685250Y2333930D02*
X6748750D01*
X6703240Y2358990D01*
Y2325130D01*
M02*
